<svg version="1.1" viewBox="0.0 0.0 643.0 371.0" fill="none" stroke="none" stroke-linecap="square" stroke-miterlimit="10" width="643" height="371" xmlns:xlink="http://www.w3.org/1999/xlink" xmlns="http://www.w3.org/2000/svg"><path fill="#ffffff" d="M0 0L643.0 0L643.0 371.0L0 371.0L0 0Z" fill-rule="nonzero"/><path stroke="#333333" stroke-width="1.0" stroke-linecap="butt" d="M93.5 61.5L93.5 300.5" fill-rule="nonzero"/><path stroke="#cccccc" stroke-width="1.0" stroke-linecap="butt" d="M224.5 61.5L224.5 300.5" fill-rule="nonzero"/><path stroke="#cccccc" stroke-width="1.0" stroke-linecap="butt" d="M355.5 61.5L355.5 300.5" fill-rule="nonzero"/><path stroke="#cccccc" stroke-width="1.0" stroke-linecap="butt" d="M486.5 61.5L486.5 300.5" fill-rule="nonzero"/><path stroke="#cccccc" stroke-width="1.0" stroke-linecap="butt" d="M617.5 61.5L617.5 300.5" fill-rule="nonzero"/><path stroke="#333333" stroke-width="1.0" stroke-linecap="butt" d="M91.5 300.5L624.5 300.5" fill-rule="nonzero"/><path stroke="#cccccc" stroke-width="1.0" stroke-linecap="butt" d="M91.5 252.5L624.5 252.5" fill-rule="nonzero"/><path stroke="#cccccc" stroke-width="1.0" stroke-linecap="butt" d="M91.5 205.5L624.5 205.5" fill-rule="nonzero"/><path stroke="#cccccc" stroke-width="1.0" stroke-linecap="butt" d="M91.5 157.5L624.5 157.5" fill-rule="nonzero"/><path stroke="#cccccc" stroke-width="1.0" stroke-linecap="butt" d="M91.5 109.5L624.5 109.5" fill-rule="nonzero"/><path stroke="#cccccc" stroke-width="1.0" stroke-linecap="butt" d="M91.5 61.5L624.5 61.5" fill-rule="nonzero"/><clipPath id="id_0"><path d="M91.55 61.916668L624.45 61.916668L624.45 300.45L91.55 300.45L91.55 61.916668Z" clip-rule="nonzero"/></clipPath><path stroke="#4f81bd" stroke-width="2.0" stroke-linecap="butt" stroke-opacity="0.4" clip-path="url(#id_0)" d="M0 -106.2037C0 -106.2037 2.6666667 -93.37501 4.0 -87.183075C5.3333335 -80.99115 6.6666665 -74.95443 8.0 -69.05212C9.333333 -63.149807 10.666667 -57.39545 12.0 -51.76921C13.333333 -46.14297 14.666667 -40.657764 16.0 -35.29468C17.333334 -29.9316 18.666666 -24.702957 20.0 -19.590727C21.333334 -14.478496 22.666666 -9.494412 24.0 -4.6212993C25.333334 0.25181442 26.666666 5.0027742 28.0 9.647955C29.333334 14.293137 30.666666 18.821877 32.0 23.249786C33.333332 27.677696 34.666668 31.994612 36.0 36.215412C37.333332 40.436214 38.666668 44.551212 40.0 48.57459C41.333332 52.59797 42.666668 56.520496 44.0 60.355686C45.333332 64.19088 46.666668 67.92993 48.0 71.58574C49.333332 75.24155 50.666668 78.80571 52.0 82.29052C53.333332 85.77534 54.666668 89.17279 56.0 92.494606C57.333332 95.81642 58.666668 99.05497 60.0 102.22141C61.333332 105.38785 62.666668 108.47492 64.0 111.493256C65.333336 114.51159 66.666664 117.45427 68.0 120.33143C69.333336 123.20858 70.666664 126.01362 72.0 128.75621C73.333336 131.49878 74.666664 134.17262 76.0 136.78693C77.333336 139.40123 78.666664 141.95 80.0 144.44202C81.333336 146.93404 82.666664 149.3636 84.0 151.73906C85.333336 154.11452 86.666664 156.43044 88.0 158.6948C89.333336 160.95915 90.666664 163.16673 92.0 165.32518C93.333336 167.48363 94.666664 169.58795 96.0 171.64545C97.333336 173.70293 98.666664 175.70883 100.0 177.67009C101.333336 179.63133 102.666664 181.54341 104.0 183.41293C105.333336 185.28244 106.666664 187.10509 108.0 188.88716C109.333336 190.66924 110.666664 192.40663 112.0 194.10535C113.333336 195.80406 114.666664 197.4602 116.0 199.07947C117.333336 200.69872 118.666664 202.27739 120.0 203.82092C121.333336 205.36444 122.666664 206.86928 124.0 208.34059C125.333336 209.81192 126.666664 211.24637 128.0 212.64888C129.33333 214.05139 130.66667 215.41873 132.0 216.75565C133.33333 218.09254 134.66667 219.39595 136.0 220.67032C137.33333 221.9447 138.66667 223.18713 140.0 224.4019C141.33333 225.61667 142.66667 226.80098 144.0 227.95894C145.33333 229.11688 146.66667 230.2458 148.0 231.3496C149.33333 232.45338 150.66667 233.52951 152.0 234.58167C153.33333 235.63382 154.66667 236.6596 156.0 237.66255C157.33333 238.6655 158.66667 239.64331 160.0 240.59935C161.33333 241.55537 162.66667 242.48746 164.0 243.39877C165.33333 244.31009 166.66667 245.19856 168.0 246.06726C169.33333 246.93594 170.66667 247.78287 172.0 248.61093C173.33333 249.439 174.66667 250.24629 176.0 251.03563C177.33333 251.82495 178.66667 252.5945 180.0 253.34691C181.33333 254.09932 182.66667 254.83287 184.0 255.55008C185.33333 256.2673 186.66667 256.96655 188.0 257.6502C189.33333 258.3339 190.66667 259.00043 192.0 259.6521C193.33333 260.3038 194.66667 260.93915 196.0 261.56036C197.33333 262.18158 198.66667 262.78723 200.0 263.37936C201.33333 263.97153 202.66667 264.54883 204.0 265.11328C205.33333 265.67776 206.66667 266.22806 208.0 266.7661C209.33333 267.30417 210.66667 267.82874 212.0 268.34164C213.33333 268.85452 214.66667 269.35455 216.0 269.84344C217.33333 270.33234 218.66667 270.809 220.0 271.27502C221.33333 271.74106 222.66667 272.1954 224.0 272.63965C225.33333 273.08386 226.66667 273.51697 228.0 273.94043C229.33333 274.3639 230.66667 274.77673 232.0 275.1804C233.33333 275.584 234.66667 275.97757 236.0 276.36234C237.33333 276.7471 238.66667 277.12222 240.0 277.48898C241.33333 277.85577 242.66667 278.21335 244.0 278.56296C245.33333 278.91257 246.66667 279.25342 248.0 279.5867C249.33333 279.91995 250.66667 280.24487 252.0 280.56253C253.33333 280.88022 254.66667 281.18994 256.0 281.49274C257.33334 281.79556 258.66666 282.0908 260.0 282.37946C261.33334 282.6681 262.66666 282.94952 264.0 283.22467C265.33334 283.49982 266.66666 283.76807 268.0 284.03036C269.33334 284.29263 270.66666 284.54834 272.0 284.79837C273.33334 285.04837 274.66666 285.2921 276.0 285.53046C277.33334 285.76877 278.66666 286.0011 280.0 286.22827C281.33334 286.45544 282.66666 286.67694 284.0 286.8935C285.33334 287.11002 286.66666 287.32114 288.0 287.52756C289.33334 287.73398 290.66666 287.93524 292.0 288.132C293.33334 288.32877 294.66666 288.5206 296.0 288.70816C297.33334 288.89572 298.66666 289.07858 300.0 289.25735C301.33334 289.43616 302.66666 289.61044 304.0 289.78088C305.33334 289.9513 306.66666 290.11746 308.0 290.2799C309.33334 290.44235 310.66666 290.60074 312.0 290.7556C313.33334 290.91046 314.66666 291.06143 316.0 291.20905C317.33334 291.35666 318.66666 291.50058 320.0 291.64127C321.33334 291.78198 322.66666 291.91916 324.0 292.05328C325.33334 292.1874 326.66666 292.31818 328.0 292.44604C329.33334 292.57388 330.66666 292.69855 332.0 292.8204C333.33334 292.9423 334.66666 293.0611 336.0 293.17728C337.33334 293.29343 338.66666 293.4067 340.0 293.51743C341.33334 293.62817 342.66666 293.73615 344.0 293.8417C345.33334 293.94727 346.66666 294.05017 348.0 294.1508C349.33334 294.2514 350.66666 294.34952 352.0 294.44543C353.33334 294.54135 354.66666 294.63486 356.0 294.7263C357.33334 294.81772 358.66666 294.90686 360.0 294.994C361.33334 295.08115 362.66666 295.16614 364.0 295.2492C365.33334 295.33228 366.66666 295.41327 368.0 295.49246C369.33334 295.57166 370.66666 295.64886 372.0 295.72433C373.33334 295.79984 374.66666 295.8734 376.0 295.94537C377.33334 296.01733 378.66666 296.0875 380.0 296.15607C381.33334 296.22467 382.66666 296.29153 384.0 296.3569C385.33334 296.4223 386.66666 296.48605 388.0 296.54837C389.33334 296.6107 390.66666 296.67145 392.0 296.73087C393.33334 296.79025 394.66666 296.84818 396.0 296.90482C397.33334 296.96146 398.66666 297.01666 400.0 297.07065C401.33334 297.1246 402.66666 297.17725 404.0 297.2287C405.33334 297.28015 406.66666 297.33032 408.0 297.37936C409.33334 297.4284 410.66666 297.47623 412.0 297.52298C413.33334 297.56976 414.66666 297.61533 416.0 297.6599C417.33334 297.70447 418.66666 297.74792 420.0 297.7904C421.33334 297.8329 422.66666 297.8743 424.0 297.9148C425.33334 297.9553 426.66666 297.99478 428.0 298.0334C429.33334 298.072 430.66666 298.10962 432.0 298.14642C433.33334 298.18323 434.66666 298.2191 436.0 298.25415C437.33334 298.28925 438.66666 298.32343 440.0 298.35687C441.33334 298.39032 442.66666 298.4229 444.0 298.45477C445.33334 298.48663 446.66666 298.51773 448.0 298.5481C449.33334 298.5785 450.66666 298.6081 452.0 298.63705C453.33334 298.66602 454.66666 298.69424 456.0 298.72186C457.33334 298.74945 458.66666 298.77637 460.0 298.80267C461.33334 298.829 462.66666 298.85464 464.0 298.87973C465.33334 298.90482 466.66666 298.92926 468.0 298.9532C469.33334 298.97708 470.66666 299.0004 472.0 299.0232C473.33334 299.046 474.66666 299.0682 476.0 299.08994C477.33334 299.11166 478.66666 299.13284 480.0 299.15353C481.33334 299.17426 482.66666 299.19446 484.0 299.21417C485.33334 299.23392 486.66666 299.25317 488.0 299.272C489.33334 299.2908 490.66666 299.30914 492.0 299.3271C493.33334 299.34503 494.66666 299.36252 496.0 299.3796C497.33334 299.3967 498.66666 299.4134 500.0 299.4297C501.33334 299.44598 502.66666 299.46185 504.0 299.4774C505.33334 299.49295 506.66666 299.5081 508.0 299.5229C509.33334 299.5377 510.66666 299.55215 512.0 299.56625C513.3333 299.58038 514.6667 299.59415 516.0 299.6076C517.3333 299.62106 518.6667 299.63416 520.0 299.647C521.3333 299.65982 522.6667 299.67233 524.0 299.68454C525.3333 299.69678 526.6667 299.7087 528.0 299.72037C529.3333 299.73203 530.6667 299.74338 532.0 299.7545C533.3333 299.7656 534.6667 299.77643 536.0 299.78702C537.3333 299.7976 538.6667 299.80792 540.0 299.81802C541.3333 299.82812 542.6667 299.83795 544.0 299.8476C545.3333 299.8572 546.6667 299.86658 548.0 299.87576C549.3333 299.88495 550.6667 299.8939 552.0 299.90262C553.3333 299.91138 554.6667 299.9199 556.0 299.92822C557.3333 299.93655 558.6667 299.94467 560.0 299.95264C561.3333 299.96057 562.6667 299.96832 564.0 299.9759C565.3333 299.98346 566.6667 299.99084 568.0 299.99808C569.3333 300.00528 570.6667 300.01233 572.0 300.0192C573.3333 300.0261 574.6667 300.0328 576.0 300.03937C577.3333 300.04593 578.6667 300.0523 580.0 300.05856C581.3333 300.06482 582.6667 300.07092 584.0 300.07687C585.3333 300.08282 586.6667 300.08865 588.0 300.09433C589.3333 300.1 590.6667 300.10556 592.0 300.11096C593.3333 300.11636 594.6667 300.12164 596.0 300.12683C597.3333 300.132 598.6667 300.13702 600.0 300.14194C601.3333 300.14685 602.6667 300.15164 604.0 300.15634C605.3333 300.16104 606.6667 300.16562 608.0 300.17007C609.3333 300.17456 610.6667 300.17892 612.0 300.18317C613.3333 300.18744 614.6667 300.1916 616.0 300.19565C617.3333 300.1997 618.6667 300.20367 620.0 300.20755C621.3333 300.21143 624.0 300.2189 624.0 300.2189" fill-rule="nonzero"/><path fill="#4f81bd" clip-path="url(#id_0)" d="M102.87081 107.04088C102.87081 109.52616 100.85609 111.54088 98.37081 111.54088C95.88553 111.54088 93.87081 109.52616 93.87081 107.04088C93.87081 104.555595 95.88553 102.54088 98.37081 102.54088C100.85609 102.54088 102.87081 104.555595 102.87081 107.04088Z" fill-rule="nonzero"/><path fill="#4f81bd" clip-path="url(#id_0)" d="M110.73836 228.70816C110.73836 231.19344 108.72364 233.20816 106.23836 233.20816C103.753075 233.20816 101.73836 231.19344 101.73836 228.70816C101.73836 226.22289 103.753075 224.20816 106.23836 224.20816C108.72364 224.20816 110.73836 226.22289 110.73836 228.70816Z" fill-rule="nonzero"/><path fill="#4f81bd" clip-path="url(#id_0)" d="M136.96353 274.5331C136.96353 277.01837 134.9488 279.0331 132.46353 279.0331C129.97826 279.0331 127.96353 277.01837 127.96353 274.5331C127.96353 272.04782 129.97826 270.0331 132.46353 270.0331C134.9488 270.0331 136.96353 272.04782 136.96353 274.5331Z" fill-rule="nonzero"/><path fill="#4f81bd" clip-path="url(#id_0)" d="M150.07611 281.1911C150.07611 283.67636 148.0614 285.6911 145.57611 285.6911C143.09084 285.6911 141.07611 283.67636 141.07611 281.1911C141.07611 278.7058 143.09084 276.6911 145.57611 276.6911C148.0614 276.6911 150.07611 278.7058 150.07611 281.1911Z" fill-rule="nonzero"/><path fill="#4f81bd" clip-path="url(#id_0)" d="M359.87747 296.83334C359.87747 299.31863 357.86276 301.33334 355.37747 301.33334C352.8922 301.33334 350.87747 299.31863 350.87747 296.83334C350.87747 294.34808 352.8922 292.33334 355.37747 292.33334C357.86276 292.33334 359.87747 294.34808 359.87747 296.83334Z" fill-rule="nonzero"/><path fill="#4f81bd" clip-path="url(#id_0)" d="M491.00333 297.7519C491.00333 300.23718 488.98862 302.2519 486.50333 302.2519C484.01807 302.2519 482.00333 300.23718 482.00333 297.7519C482.00333 295.2666 484.01807 293.2519 486.50333 293.2519C488.98862 293.2519 491.00333 295.2666 491.00333 297.7519Z" fill-rule="nonzero"/><path fill="#4f81bd" clip-path="url(#id_0)" d="M622.1292 298.51123C622.1292 300.9965 620.1145 303.01123 617.6292 303.01123C615.1439 303.01123 613.1292 300.9965 613.1292 298.51123C613.1292 296.02594 615.1439 294.01123 617.6292 294.01123C620.1145 294.01123 622.1292 296.02594 622.1292 298.51123Z" fill-rule="nonzero"/><path fill="#000000" d="M337.04688 340.85626L342.4375 340.85626L342.4375 349.45L341.29688 349.45L341.29688 341.8719L338.1875 341.8719L338.1875 346.29376Q338.1875 347.6375 338.0625 348.27814Q337.9375 348.90314 337.53125 349.2469Q337.125 349.59064 336.51562 349.59064Q336.14062 349.59064 335.60938 349.45L335.79688 348.45Q336.07812 348.5594 336.28125 348.5594Q336.67188 348.5594 336.85938 348.27814Q337.04688 347.98126 337.04688 346.90314L337.04688 340.85626ZM349.1875 343.23126L349.1875 349.45L348.14062 349.45L348.14062 347.02814L347.53125 347.02814Q346.96875 347.02814 346.70312 347.16876Q346.4375 347.3094 345.90625 348.09064L344.98438 349.45L343.6875 349.45L344.8125 347.77814Q345.34375 347.0125 345.85938 346.90314Q344.95312 346.77814 344.51562 346.2625Q344.07812 345.73126 344.07812 345.04376Q344.07812 344.23126 344.64062 343.73126Q345.21875 343.23126 346.3125 343.23126L349.1875 343.23126ZM348.14062 344.10626L346.64062 344.10626Q345.70312 344.10626 345.42188 344.40314Q345.15625 344.6844 345.15625 345.075Q345.15625 345.6375 345.54688 345.90314Q345.95312 346.15314 346.96875 346.15314L348.14062 346.15314L348.14062 344.10626ZM351.32812 343.23126L352.96875 343.23126L354.59375 348.2L356.40625 343.23126L357.9375 343.23126L357.9375 349.45L356.875 349.45L356.875 344.4344L355.03125 349.45L354.09375 349.45L352.35938 344.2L352.35938 349.45L351.32812 349.45L351.32812 343.23126ZM364.84375 340.65314L365.78125 340.66876Q365.71875 341.29376 365.5 341.54376Q365.29688 341.77814 364.95312 341.85626Q364.60938 341.91876 363.625 341.91876Q362.32812 341.91876 361.84375 342.1844Q361.375 342.4344 361.15625 342.9969Q360.95312 343.54376 360.9375 344.40314Q361.32812 343.825 361.85938 343.52814Q362.40625 343.23126 363.0625 343.23126Q364.29688 343.23126 365.09375 344.075Q365.90625 344.90314 365.90625 346.34064Q365.90625 347.4344 365.5 348.1375Q365.09375 348.825 364.53125 349.21564Q363.98438 349.59064 363.03125 349.59064Q361.92188 349.59064 361.29688 349.09064Q360.6875 348.575 360.35938 347.79376Q360.03125 346.9969 360.03125 345.02814Q360.03125 342.5594 360.85938 341.71564Q361.70312 340.85626 363.4375 340.85626Q364.51562 340.85626 364.65625 340.825Q364.8125 340.77814 364.84375 340.65314ZM364.79688 346.3094Q364.79688 345.34064 364.32812 344.73126Q363.875 344.10626 363.04688 344.10626Q362.17188 344.10626 361.6875 344.7625Q361.21875 345.41876 361.21875 346.5125Q361.21875 347.59064 361.73438 348.16876Q362.26562 348.7469 363.03125 348.7469Q363.8125 348.7469 364.29688 348.075Q364.79688 347.40314 364.79688 346.3094ZM368.125 343.23126L372.45312 343.23126L372.45312 348.575L373.14062 348.575L373.14062 351.21564L372.26562 351.21564L372.26562 349.45L367.375 349.45L367.375 351.21564L366.5 351.21564L366.5 348.575L367.0625 348.575Q368.17188 347.075 368.125 343.23126ZM369.0 344.10626Q368.89062 347.1219 368.0625 348.575L371.40625 348.575L371.40625 344.10626L369.0 344.10626ZM378.35938 348.6844Q377.76562 349.1844 377.21875 349.3875Q376.6875 349.59064 376.0625 349.59064Q375.03125 349.59064 374.48438 349.09064Q373.9375 348.59064 373.9375 347.8094Q373.9375 347.35626 374.14062 346.98126Q374.34375 346.59064 374.6875 346.3719Q375.03125 346.1375 375.45312 346.02814Q375.75 345.9344 376.39062 345.85626Q377.65625 345.71564 378.26562 345.4969Q378.26562 345.27814 378.26562 345.23126Q378.26562 344.575 377.96875 344.3094Q377.5625 343.96564 376.76562 343.96564Q376.03125 343.96564 375.67188 344.23126Q375.3125 344.48126 375.14062 345.1375L374.10938 344.9969Q374.25 344.34064 374.57812 343.9344Q374.90625 343.52814 375.51562 343.3094Q376.125 343.09064 376.92188 343.09064Q377.71875 343.09064 378.21875 343.27814Q378.71875 343.46564 378.95312 343.7469Q379.1875 344.02814 379.28125 344.46564Q379.32812 344.73126 379.32812 345.4344L379.32812 346.84064Q379.32812 348.3094 379.39062 348.7Q379.46875 349.09064 379.67188 349.45L378.5625 349.45Q378.40625 349.1219 378.35938 348.6844ZM378.26562 346.325Q377.6875 346.5594 376.54688 346.73126Q375.89062 346.825 375.625 346.95Q375.35938 347.0594 375.20312 347.27814Q375.0625 347.4969 375.0625 347.77814Q375.0625 348.2 375.375 348.48126Q375.70312 348.7625 376.3125 348.7625Q376.92188 348.7625 377.39062 348.4969Q377.875 348.23126 378.09375 347.7625Q378.26562 347.40314 378.26562 346.71564L378.26562 346.325Z" fill-rule="nonzero"/><path fill="#000000" d="M26.534388 225.62083L26.831263 224.49583Q28.221888 224.85521 28.956263 225.77708Q29.690638 226.69896 29.690638 228.04271Q29.690638 229.43333 29.128138 230.30833Q28.565638 231.18333 27.503138 231.63646Q26.425013 232.08958 25.190638 232.08958Q23.846888 232.08958 22.846888 231.57396Q21.846888 231.05833 21.331263 230.12083Q20.815638 229.16771 20.815638 228.02708Q20.815638 226.74583 21.471888 225.87083Q22.128138 224.98021 23.315638 224.63646L23.581263 225.76146Q22.643763 226.05833 22.221888 226.63646Q21.784388 227.19896 21.784388 228.05833Q21.784388 229.04271 22.268763 229.71458Q22.737513 230.37083 23.534388 230.65208Q24.331263 230.91771 25.190638 230.91771Q26.284388 230.91771 27.096888 230.60521Q27.909388 230.27708 28.315638 229.60521Q28.721888 228.93333 28.721888 228.13646Q28.721888 227.18333 28.175013 226.52708Q27.628138 225.85521 26.534388 225.62083ZM31.940638 222.88646L23.331263 222.88646L23.331263 221.93333L24.128138 221.93333Q23.659388 221.58958 23.425013 221.16771Q23.190638 220.73021 23.190638 220.12083Q23.190638 219.32396 23.596888 218.71458Q24.003138 218.10521 24.753138 217.80833Q25.503138 217.49583 26.393763 217.49583Q27.346888 217.49583 28.112513 217.83958Q28.878138 218.16771 29.284388 218.82396Q29.690638 219.48021 29.690638 220.19896Q29.690638 220.73021 29.471888 221.15208Q29.237513 221.57396 28.909388 221.83958L31.940638 221.83958L31.940638 222.88646ZM26.471888 221.93333Q27.675013 221.93333 28.253138 221.44896Q28.815638 220.96458 28.815638 220.27708Q28.815638 219.57396 28.221888 219.07396Q27.628138 218.57396 26.378138 218.57396Q25.190638 218.57396 24.612513 219.05833Q24.018763 219.54271 24.018763 220.23021Q24.018763 220.90208 24.643763 221.41771Q25.268763 221.93333 26.471888 221.93333ZM27.550013 211.63646L27.675013 210.54271Q28.628138 210.79271 29.159388 211.49583Q29.690638 212.19896 29.690638 213.27708Q29.690638 214.63646 28.846888 215.44896Q28.003138 216.24583 26.487513 216.24583Q24.925013 216.24583 24.065638 215.43333Q23.190638 214.62083 23.190638 213.33958Q23.190638 212.08958 24.034388 211.30833Q24.878138 210.51146 26.425013 210.51146Q26.518763 210.51146 26.706263 210.51146L26.706263 215.15208Q27.737513 215.08958 28.284388 214.57396Q28.815638 214.05833 28.815638 213.27708Q28.815638 212.69896 28.518763 212.29271Q28.206263 211.87083 27.550013 211.63646ZM25.846888 215.08958L25.846888 211.62083Q25.050013 211.68333 24.659388 212.01146Q24.050013 212.52708 24.050013 213.32396Q24.050013 214.05833 24.534388 214.55833Q25.018763 215.04271 25.846888 215.08958ZM23.331263 208.05833L23.331263 203.73021L28.675013 203.73021L28.675013 203.04271L31.315638 203.04271L31.315638 203.91771L29.550013 203.91771L29.550013 208.80833L31.315638 208.80833L31.315638 209.68333L28.675013 209.68333L28.675013 209.12083Q27.175013 208.01146 23.331263 208.05833ZM24.206263 207.18333Q27.221888 207.29271 28.675013 208.12083L28.675013 204.77708L24.206263 204.77708L24.206263 207.18333ZM23.331263 201.88646L23.331263 200.82396L25.909388 200.82396L25.909388 197.90208L23.331263 197.90208L23.331263 196.85521L29.550013 196.85521L29.550013 197.90208L26.784388 197.90208L26.784388 200.82396L29.550013 200.82396L29.550013 201.88646L23.331263 201.88646ZM27.550013 190.63646L27.675013 189.54271Q28.628138 189.79271 29.159388 190.49583Q29.690638 191.19896 29.690638 192.27708Q29.690638 193.63646 28.846888 194.44896Q28.003138 195.24583 26.487513 195.24583Q24.925013 195.24583 24.065638 194.43333Q23.190638 193.62083 23.190638 192.33958Q23.190638 191.08958 24.034388 190.30833Q24.878138 189.51146 26.425013 189.51146Q26.518763 189.51146 26.706263 189.51146L26.706263 194.15208Q27.737513 194.08958 28.284388 193.57396Q28.815638 193.05833 28.815638 192.27708Q28.815638 191.69896 28.518763 191.29271Q28.206263 190.87083 27.550013 190.63646ZM25.846888 194.08958L25.846888 190.62083Q25.050013 190.68333 24.659388 191.01146Q24.050013 191.52708 24.050013 192.32396Q24.050013 193.05833 24.534388 193.55833Q25.018763 194.04271 25.846888 194.08958ZM27.550013 183.63646L27.675013 182.54271Q28.628138 182.79271 29.159388 183.49583Q29.690638 184.19896 29.690638 185.27708Q29.690638 186.63646 28.846888 187.44896Q28.003138 188.24583 26.487513 188.24583Q24.925013 188.24583 24.065638 187.43333Q23.190638 186.62083 23.190638 185.33958Q23.190638 184.08958 24.034388 183.30833Q24.878138 182.51146 26.425013 182.51146Q26.518763 182.51146 26.706263 182.51146L26.706263 187.15208Q27.737513 187.08958 28.284388 186.57396Q28.815638 186.05833 28.815638 185.27708Q28.815638 184.69896 28.518763 184.29271Q28.206263 183.87083 27.550013 183.63646ZM25.846888 187.08958L25.846888 183.62083Q25.050013 183.68333 24.659388 184.01146Q24.050013 184.52708 24.050013 185.32396Q24.050013 186.05833 24.534388 186.55833Q25.018763 187.04271 25.846888 187.08958ZM23.331263 177.88646L23.331263 175.44896Q23.331263 174.55833 23.487513 174.12083Q23.628138 173.68333 24.034388 173.37083Q24.425013 173.05833 24.971888 173.05833Q25.425013 173.05833 25.753138 173.24583Q26.081263 173.43333 26.315638 173.79271Q26.456263 173.35521 26.862513 173.07396Q27.253138 172.77708 27.815638 172.77708Q28.690638 172.83958 29.128138 173.41771Q29.550013 173.98021 29.550013 175.07396L29.550013 177.88646L23.331263 177.88646ZM25.940638 176.82396L25.940638 175.69896Q25.940638 175.02708 25.878138 174.77708Q25.800013 174.52708 25.596888 174.33958Q25.378138 174.13646 25.081263 174.13646Q24.581263 174.13646 24.393763 174.48021Q24.206263 174.82396 24.206263 175.66771L24.206263 176.82396L25.940638 176.82396ZM28.675013 176.82396L28.675013 175.44896Q28.675013 174.54271 28.471888 174.21458Q28.268763 173.87083 27.753138 173.85521Q27.456263 173.85521 27.206263 174.05833Q26.940638 174.24583 26.878138 174.55833Q26.815638 174.87083 26.815638 175.55833L26.815638 176.82396L28.675013 176.82396ZM31.940638 171.88646L23.331263 171.88646L23.331263 170.93333L24.128138 170.93333Q23.659388 170.58958 23.425013 170.16771Q23.190638 169.73021 23.190638 169.12083Q23.190638 168.32396 23.596888 167.71458Q24.003138 167.10521 24.753138 166.80833Q25.503138 166.49583 26.393763 166.49583Q27.346888 166.49583 28.112513 166.83958Q28.878138 167.16771 29.284388 167.82396Q29.690638 168.48021 29.690638 169.19896Q29.690638 169.73021 29.471888 170.15208Q29.237513 170.57396 28.909388 170.83958L31.940638 170.83958L31.940638 171.88646ZM26.471888 170.93333Q27.675013 170.93333 28.253138 170.44896Q28.815638 169.96458 28.815638 169.27708Q28.815638 168.57396 28.221888 168.07396Q27.628138 167.57396 26.378138 167.57396Q25.190638 167.57396 24.612513 168.05833Q24.018763 168.54271 24.018763 169.23021Q24.018763 169.90208 24.643763 170.41771Q25.268763 170.93333 26.471888 170.93333ZM27.550013 160.63646L27.675013 159.54271Q28.628138 159.79271 29.159388 160.49583Q29.690638 161.19896 29.690638 162.27708Q29.690638 163.63646 28.846888 164.44896Q28.003138 165.24583 26.487513 165.24583Q24.925013 165.24583 24.065638 164.43333Q23.190638 163.62083 23.190638 162.33958Q23.190638 161.08958 24.034388 160.30833Q24.878138 159.51146 26.425013 159.51146Q26.518763 159.51146 26.706263 159.51146L26.706263 164.15208Q27.737513 164.08958 28.284388 163.57396Q28.815638 163.05833 28.815638 162.27708Q28.815638 161.69896 28.518763 161.29271Q28.206263 160.87083 27.550013 160.63646ZM25.846888 164.08958L25.846888 160.62083Q25.050013 160.68333 24.659388 161.01146Q24.050013 161.52708 24.050013 162.32396Q24.050013 163.05833 24.534388 163.55833Q25.018763 164.04271 25.846888 164.08958ZM23.331263 157.85521L23.331263 156.21458L28.300013 154.58958L23.331263 152.77708L23.331263 151.24583L29.550013 151.24583L29.550013 152.30833L24.534388 152.30833L29.550013 154.15208L29.550013 155.08958L24.300013 156.82396L29.550013 156.82396L29.550013 157.85521L23.331263 157.85521ZM23.331263 143.99583L29.550013 143.99583L29.550013 145.04271L27.128138 145.04271L27.128138 145.65208Q27.128138 146.21458 27.268763 146.48021Q27.409388 146.74583 28.190638 147.27708L29.550013 148.19896L29.550013 149.49583L27.878138 148.37083Q27.112513 147.83958 27.003138 147.32396Q26.878138 148.23021 26.362513 148.66771Q25.831263 149.10521 25.143763 149.10521Q24.331263 149.10521 23.831263 148.54271Q23.331263 147.96458 23.331263 146.87083L23.331263 143.99583ZM24.206263 145.04271L24.206263 146.54271Q24.206263 147.48021 24.503138 147.76146Q24.784388 148.02708 25.175013 148.02708Q25.737513 148.02708 26.003138 147.63646Q26.253138 147.23021 26.253138 146.21458L26.253138 145.04271L24.206263 145.04271Z" fill-rule="nonzero"/><path fill="#000000" d="M79.05 300.21564Q79.05 298.6844 79.3625 297.7625Q79.675 296.825 80.28438 296.325Q80.90938 295.825 81.84688 295.825Q82.53438 295.825 83.05 296.10626Q83.58125 296.3875 83.925 296.91876Q84.26875 297.4344 84.45625 298.1844Q84.64375 298.9344 84.64375 300.21564Q84.64375 301.73126 84.33125 302.65314Q84.03438 303.575 83.40938 304.09064Q82.8 304.59064 81.84688 304.59064Q80.6125 304.59064 79.89375 303.7Q79.05 302.6375 79.05 300.21564ZM80.12813 300.21564Q80.12813 302.325 80.62813 303.02814Q81.12813 303.73126 81.84688 303.73126Q82.58125 303.73126 83.06563 303.02814Q83.56563 302.325 83.56563 300.21564Q83.56563 298.09064 83.06563 297.40314Q82.58125 296.7 81.83125 296.7Q81.1125 296.7 80.675 297.3094Q80.12813 298.09064 80.12813 300.21564Z" fill-rule="nonzero"/><path fill="#000000" d="M63.596874 255.72772L63.596874 256.74335L57.909374 256.74335Q57.909374 256.36835 58.034374 256.00897Q58.253124 255.43085 58.721874 254.86835Q59.20625 254.30585 60.1125 253.57147Q61.51875 252.41522 62.003124 251.74335Q62.503124 251.07147 62.503124 250.47772Q62.503124 249.85272 62.05 249.43085Q61.596874 248.99335 60.878124 248.99335Q60.1125 248.99335 59.659374 249.44647Q59.20625 249.8996 59.190624 250.7121L58.1125 250.60272Q58.221874 249.38397 58.940624 248.75897Q59.675 248.11835 60.909374 248.11835Q62.14375 248.11835 62.8625 248.80585Q63.58125 249.49335 63.58125 250.50897Q63.58125 251.0246 63.3625 251.5246Q63.159374 252.00897 62.659374 252.57147Q62.175 253.11835 61.05 254.07147Q60.096874 254.86835 59.815624 255.16522Q59.55 255.44647 59.378124 255.72772L63.596874 255.72772ZM65.05 254.49335L66.15938 254.3996Q66.28438 255.2121 66.72188 255.61835Q67.175 256.0246 67.81563 256.0246Q68.56563 256.0246 69.09688 255.44647Q69.62813 254.86835 69.62813 253.93085Q69.62813 253.0246 69.1125 252.50897Q68.6125 251.97772 67.78438 251.97772Q67.28438 251.97772 66.8625 252.2121Q66.45625 252.44647 66.22188 252.80585L65.2375 252.68085L66.06563 248.2746L70.34688 248.2746L70.34688 249.2746L66.90938 249.2746L66.45625 251.5871Q67.22188 251.04022 68.06563 251.04022Q69.19063 251.04022 69.95625 251.82147Q70.7375 252.60272 70.7375 253.8371Q70.7375 254.99335 70.06563 255.85272Q69.2375 256.88397 67.81563 256.88397Q66.64375 256.88397 65.89375 256.22772Q65.15938 255.57147 65.05 254.49335ZM72.05 252.50897Q72.05 250.97772 72.3625 250.05585Q72.675 249.11835 73.28438 248.61835Q73.90938 248.11835 74.84688 248.11835Q75.53438 248.11835 76.05 248.3996Q76.58125 248.68085 76.925 249.2121Q77.26875 249.72772 77.45625 250.47772Q77.64375 251.22772 77.64375 252.50897Q77.64375 254.0246 77.33125 254.94647Q77.03438 255.86835 76.40938 256.38397Q75.8 256.88397 74.84688 256.88397Q73.6125 256.88397 72.89375 255.99335Q72.05 254.93085 72.05 252.50897ZM73.12813 252.50897Q73.12813 254.61835 73.62813 255.32147Q74.12813 256.0246 74.84688 256.0246Q75.58125 256.0246 76.06563 255.32147Q76.56563 254.61835 76.56563 252.50897Q76.56563 250.38397 76.06563 249.69647Q75.58125 248.99335 74.83125 248.99335Q74.1125 248.99335 73.675 249.60272Q73.12813 250.38397 73.12813 252.50897ZM79.05 252.50897Q79.05 250.97772 79.3625 250.05585Q79.675 249.11835 80.28438 248.61835Q80.90938 248.11835 81.84688 248.11835Q82.53438 248.11835 83.05 248.3996Q83.58125 248.68085 83.925 249.2121Q84.26875 249.72772 84.45625 250.47772Q84.64375 251.22772 84.64375 252.50897Q84.64375 254.0246 84.33125 254.94647Q84.03438 255.86835 83.40938 256.38397Q82.8 256.88397 81.84688 256.88397Q80.6125 256.88397 79.89375 255.99335Q79.05 254.93085 79.05 252.50897ZM80.12813 252.50897Q80.12813 254.61835 80.62813 255.32147Q81.12813 256.0246 81.84688 256.0246Q82.58125 256.0246 83.06563 255.32147Q83.56563 254.61835 83.56563 252.50897Q83.56563 250.38397 83.06563 249.69647Q82.58125 248.99335 81.83125 248.99335Q81.1125 248.99335 80.675 249.60272Q80.12813 250.38397 80.12813 252.50897Z" fill-rule="nonzero"/><path fill="#000000" d="M58.05 206.78667L59.159374 206.69292Q59.284374 207.50542 59.721874 207.91167Q60.175 208.31792 60.815624 208.31792Q61.565624 208.31792 62.096874 207.73979Q62.628124 207.16167 62.628124 206.22417Q62.628124 205.31792 62.1125 204.80229Q61.6125 204.27104 60.784374 204.27104Q60.284374 204.27104 59.8625 204.50542Q59.45625 204.73979 59.221874 205.09917L58.2375 204.97417L59.065624 200.56792L63.346874 200.56792L63.346874 201.56792L59.909374 201.56792L59.45625 203.88042Q60.221874 203.33354 61.065624 203.33354Q62.190624 203.33354 62.95625 204.11479Q63.7375 204.89604 63.7375 206.13042Q63.7375 207.28667 63.065624 208.14604Q62.2375 209.17729 60.815624 209.17729Q59.64375 209.17729 58.89375 208.52104Q58.159374 207.86479 58.05 206.78667ZM65.05 204.80229Q65.05 203.27104 65.3625 202.34917Q65.675 201.41167 66.28438 200.91167Q66.90938 200.41167 67.84688 200.41167Q68.53438 200.41167 69.05 200.69292Q69.58125 200.97417 69.925 201.50542Q70.26875 202.02104 70.45625 202.77104Q70.64375 203.52104 70.64375 204.80229Q70.64375 206.31792 70.33125 207.23979Q70.03438 208.16167 69.40938 208.67729Q68.8 209.17729 67.84688 209.17729Q66.6125 209.17729 65.89375 208.28667Q65.05 207.22417 65.05 204.80229ZM66.12813 204.80229Q66.12813 206.91167 66.62813 207.61479Q67.12813 208.31792 67.84688 208.31792Q68.58125 208.31792 69.06563 207.61479Q69.56563 206.91167 69.56563 204.80229Q69.56563 202.67729 69.06563 201.98979Q68.58125 201.28667 67.83125 201.28667Q67.1125 201.28667 66.675 201.89604Q66.12813 202.67729 66.12813 204.80229ZM72.05 204.80229Q72.05 203.27104 72.3625 202.34917Q72.675 201.41167 73.28438 200.91167Q73.90938 200.41167 74.84688 200.41167Q75.53438 200.41167 76.05 200.69292Q76.58125 200.97417 76.925 201.50542Q77.26875 202.02104 77.45625 202.77104Q77.64375 203.52104 77.64375 204.80229Q77.64375 206.31792 77.33125 207.23979Q77.03438 208.16167 76.40938 208.67729Q75.8 209.17729 74.84688 209.17729Q73.6125 209.17729 72.89375 208.28667Q72.05 207.22417 72.05 204.80229ZM73.12813 204.80229Q73.12813 206.91167 73.62813 207.61479Q74.12813 208.31792 74.84688 208.31792Q75.58125 208.31792 76.06563 207.61479Q76.56563 206.91167 76.56563 204.80229Q76.56563 202.67729 76.06563 201.98979Q75.58125 201.28667 74.83125 201.28667Q74.1125 201.28667 73.675 201.89604Q73.12813 202.67729 73.12813 204.80229ZM79.05 204.80229Q79.05 203.27104 79.3625 202.34917Q79.675 201.41167 80.28438 200.91167Q80.90938 200.41167 81.84688 200.41167Q82.53438 200.41167 83.05 200.69292Q83.58125 200.97417 83.925 201.50542Q84.26875 202.02104 84.45625 202.77104Q84.64375 203.52104 84.64375 204.80229Q84.64375 206.31792 84.33125 207.23979Q84.03438 208.16167 83.40938 208.67729Q82.8 209.17729 81.84688 209.17729Q80.6125 209.17729 79.89375 208.28667Q79.05 207.22417 79.05 204.80229ZM80.12813 204.80229Q80.12813 206.91167 80.62813 207.61479Q81.12813 208.31792 81.84688 208.31792Q82.58125 208.31792 83.06563 207.61479Q83.56563 206.91167 83.56563 204.80229Q83.56563 202.67729 83.06563 201.98979Q82.58125 201.28667 81.83125 201.28667Q81.1125 201.28667 80.675 201.89604Q80.12813 202.67729 80.12813 204.80229Z" fill-rule="nonzero"/><path fill="#000000" d="M58.1125 153.86125L58.1125 152.84563L63.675 152.84563L63.675 153.67375Q62.8625 154.54875 62.05 156.00188Q61.253124 157.43938 60.815624 158.97063Q60.4875 160.04875 60.409374 161.33L59.315624 161.33Q59.33125 160.31438 59.70625 158.87688Q60.096874 157.43938 60.8 156.11125Q61.51875 154.78313 62.33125 153.86125L58.1125 153.86125ZM65.05 159.08L66.15938 158.98625Q66.28438 159.79875 66.72188 160.205Q67.175 160.61125 67.81563 160.61125Q68.56563 160.61125 69.09688 160.03313Q69.62813 159.455 69.62813 158.5175Q69.62813 157.61125 69.1125 157.09563Q68.6125 156.56438 67.78438 156.56438Q67.28438 156.56438 66.8625 156.79875Q66.45625 157.03313 66.22188 157.3925L65.2375 157.2675L66.06563 152.86125L70.34688 152.86125L70.34688 153.86125L66.90938 153.86125L66.45625 156.17375Q67.22188 155.62688 68.06563 155.62688Q69.19063 155.62688 69.95625 156.40813Q70.7375 157.18938 70.7375 158.42375Q70.7375 159.58 70.06563 160.43938Q69.2375 161.47063 67.81563 161.47063Q66.64375 161.47063 65.89375 160.81438Q65.15938 160.15813 65.05 159.08ZM72.05 157.09563Q72.05 155.56438 72.3625 154.6425Q72.675 153.705 73.28438 153.205Q73.90938 152.705 74.84688 152.705Q75.53438 152.705 76.05 152.98625Q76.58125 153.2675 76.925 153.79875Q77.26875 154.31438 77.45625 155.06438Q77.64375 155.81438 77.64375 157.09563Q77.64375 158.61125 77.33125 159.53313Q77.03438 160.455 76.40938 160.97063Q75.8 161.47063 74.84688 161.47063Q73.6125 161.47063 72.89375 160.58Q72.05 159.5175 72.05 157.09563ZM73.12813 157.09563Q73.12813 159.205 73.62813 159.90813Q74.12813 160.61125 74.84688 160.61125Q75.58125 160.61125 76.06563 159.90813Q76.56563 159.205 76.56563 157.09563Q76.56563 154.97063 76.06563 154.28313Q75.58125 153.58 74.83125 153.58Q74.1125 153.58 73.675 154.18938Q73.12813 154.97063 73.12813 157.09563ZM79.05 157.09563Q79.05 155.56438 79.3625 154.6425Q79.675 153.705 80.28438 153.205Q80.90938 152.705 81.84688 152.705Q82.53438 152.705 83.05 152.98625Q83.58125 153.2675 83.925 153.79875Q84.26875 154.31438 84.45625 155.06438Q84.64375 155.81438 84.64375 157.09563Q84.64375 158.61125 84.33125 159.53313Q84.03438 160.455 83.40938 160.97063Q82.8 161.47063 81.84688 161.47063Q80.6125 161.47063 79.89375 160.58Q79.05 159.5175 79.05 157.09563ZM80.12813 157.09563Q80.12813 159.205 80.62813 159.90813Q81.12813 160.61125 81.84688 160.61125Q82.58125 160.61125 83.06563 159.90813Q83.56563 159.205 83.56563 157.09563Q83.56563 154.97063 83.06563 154.28313Q82.58125 153.58 81.83125 153.58Q81.1125 153.58 80.675 154.18938Q80.12813 154.97063 80.12813 157.09563Z" fill-rule="nonzero"/><path fill="#000000" d="M55.01875 113.62334L53.971874 113.62334L53.971874 106.90459Q53.58125 107.26396 52.95625 107.63896Q52.346874 107.99834 51.8625 108.17021L51.8625 107.15459Q52.7375 106.73271 53.39375 106.15459Q54.065624 105.56084 54.346874 104.99834L55.01875 104.99834L55.01875 113.62334ZM58.05 109.38896Q58.05 107.85771 58.3625 106.93584Q58.675 105.99834 59.284374 105.49834Q59.909374 104.99834 60.846874 104.99834Q61.534374 104.99834 62.05 105.27959Q62.58125 105.56084 62.925 106.09209Q63.26875 106.60771 63.45625 107.35771Q63.64375 108.10771 63.64375 109.38896Q63.64375 110.90459 63.33125 111.82646Q63.034374 112.74834 62.409374 113.26396Q61.8 113.76396 60.846874 113.76396Q59.6125 113.76396 58.89375 112.87334Q58.05 111.81084 58.05 109.38896ZM59.128124 109.38896Q59.128124 111.49834 59.628124 112.20146Q60.128124 112.90459 60.846874 112.90459Q61.58125 112.90459 62.065624 112.20146Q62.565624 111.49834 62.565624 109.38896Q62.565624 107.26396 62.065624 106.57646Q61.58125 105.87334 60.83125 105.87334Q60.1125 105.87334 59.675 106.48271Q59.128124 107.26396 59.128124 109.38896ZM65.05 109.38896Q65.05 107.85771 65.3625 106.93584Q65.675 105.99834 66.28438 105.49834Q66.90938 104.99834 67.84688 104.99834Q68.53438 104.99834 69.05 105.27959Q69.58125 105.56084 69.925 106.09209Q70.26875 106.60771 70.45625 107.35771Q70.64375 108.10771 70.64375 109.38896Q70.64375 110.90459 70.33125 111.82646Q70.03438 112.74834 69.40938 113.26396Q68.8 113.76396 67.84688 113.76396Q66.6125 113.76396 65.89375 112.87334Q65.05 111.81084 65.05 109.38896ZM66.12813 109.38896Q66.12813 111.49834 66.62813 112.20146Q67.12813 112.90459 67.84688 112.90459Q68.58125 112.90459 69.06563 112.20146Q69.56563 111.49834 69.56563 109.38896Q69.56563 107.26396 69.06563 106.57646Q68.58125 105.87334 67.83125 105.87334Q67.1125 105.87334 66.675 106.48271Q66.12813 107.26396 66.12813 109.38896ZM72.05 109.38896Q72.05 107.85771 72.3625 106.93584Q72.675 105.99834 73.28438 105.49834Q73.90938 104.99834 74.84688 104.99834Q75.53438 104.99834 76.05 105.27959Q76.58125 105.56084 76.925 106.09209Q77.26875 106.60771 77.45625 107.35771Q77.64375 108.10771 77.64375 109.38896Q77.64375 110.90459 77.33125 111.82646Q77.03438 112.74834 76.40938 113.26396Q75.8 113.76396 74.84688 113.76396Q73.6125 113.76396 72.89375 112.87334Q72.05 111.81084 72.05 109.38896ZM73.12813 109.38896Q73.12813 111.49834 73.62813 112.20146Q74.12813 112.90459 74.84688 112.90459Q75.58125 112.90459 76.06563 112.20146Q76.56563 111.49834 76.56563 109.38896Q76.56563 107.26396 76.06563 106.57646Q75.58125 105.87334 74.83125 105.87334Q74.1125 105.87334 73.675 106.48271Q73.12813 107.26396 73.12813 109.38896ZM79.05 109.38896Q79.05 107.85771 79.3625 106.93584Q79.675 105.99834 80.28438 105.49834Q80.90938 104.99834 81.84688 104.99834Q82.53438 104.99834 83.05 105.27959Q83.58125 105.56084 83.925 106.09209Q84.26875 106.60771 84.45625 107.35771Q84.64375 108.10771 84.64375 109.38896Q84.64375 110.90459 84.33125 111.82646Q84.03438 112.74834 83.40938 113.26396Q82.8 113.76396 81.84688 113.76396Q80.6125 113.76396 79.89375 112.87334Q79.05 111.81084 79.05 109.38896ZM80.12813 109.38896Q80.12813 111.49834 80.62813 112.20146Q81.12813 112.90459 81.84688 112.90459Q82.58125 112.90459 83.06563 112.20146Q83.56563 111.49834 83.56563 109.38896Q83.56563 107.26396 83.06563 106.57646Q82.58125 105.87334 81.83125 105.87334Q81.1125 105.87334 80.675 106.48271Q80.12813 107.26396 80.12813 109.38896Z" fill-rule="nonzero"/><path fill="#000000" d="M55.01875 65.916664L53.971874 65.916664L53.971874 59.197914Q53.58125 59.55729 52.95625 59.93229Q52.346874 60.291664 51.8625 60.46354L51.8625 59.447914Q52.7375 59.02604 53.39375 58.447914Q54.065624 57.854164 54.346874 57.291664L55.01875 57.291664L55.01875 65.916664ZM63.596874 64.90104L63.596874 65.916664L57.909374 65.916664Q57.909374 65.541664 58.034374 65.18229Q58.253124 64.604164 58.721874 64.041664Q59.20625 63.479164 60.1125 62.74479Q61.51875 61.58854 62.003124 60.916664Q62.503124 60.24479 62.503124 59.65104Q62.503124 59.02604 62.05 58.604164Q61.596874 58.166664 60.878124 58.166664Q60.1125 58.166664 59.659374 58.61979Q59.20625 59.072914 59.190624 59.885414L58.1125 59.77604Q58.221874 58.55729 58.940624 57.93229Q59.675 57.291664 60.909374 57.291664Q62.14375 57.291664 62.8625 57.979164Q63.58125 58.666664 63.58125 59.68229Q63.58125 60.197914 63.3625 60.697914Q63.159374 61.18229 62.659374 61.74479Q62.175 62.291664 61.05 63.24479Q60.096874 64.041664 59.815624 64.33854Q59.55 64.61979 59.378124 64.90104L63.596874 64.90104ZM65.05 63.666664L66.15938 63.572914Q66.28438 64.385414 66.72188 64.791664Q67.175 65.197914 67.81563 65.197914Q68.56563 65.197914 69.09688 64.61979Q69.62813 64.041664 69.62813 63.104164Q69.62813 62.197914 69.1125 61.68229Q68.6125 61.15104 67.78438 61.15104Q67.28438 61.15104 66.8625 61.385414Q66.45625 61.61979 66.22188 61.979164L65.2375 61.854164L66.06563 57.447914L70.34688 57.447914L70.34688 58.447914L66.90938 58.447914L66.45625 60.760414Q67.22188 60.21354 68.06563 60.21354Q69.19063 60.21354 69.95625 60.99479Q70.7375 61.77604 70.7375 63.010414Q70.7375 64.166664 70.06563 65.02604Q69.2375 66.05729 67.81563 66.05729Q66.64375 66.05729 65.89375 65.40104Q65.15938 64.74479 65.05 63.666664ZM72.05 61.68229Q72.05 60.15104 72.3625 59.229164Q72.675 58.291664 73.28438 57.791664Q73.90938 57.291664 74.84688 57.291664Q75.53438 57.291664 76.05 57.572914Q76.58125 57.854164 76.925 58.385414Q77.26875 58.90104 77.45625 59.65104Q77.64375 60.40104 77.64375 61.68229Q77.64375 63.197914 77.33125 64.11979Q77.03438 65.041664 76.40938 65.55729Q75.8 66.05729 74.84688 66.05729Q73.6125 66.05729 72.89375 65.166664Q72.05 64.104164 72.05 61.68229ZM73.12813 61.68229Q73.12813 63.791664 73.62813 64.49479Q74.12813 65.197914 74.84688 65.197914Q75.58125 65.197914 76.06563 64.49479Q76.56563 63.791664 76.56563 61.68229Q76.56563 59.55729 76.06563 58.86979Q75.58125 58.166664 74.83125 58.166664Q74.1125 58.166664 73.675 58.77604Q73.12813 59.55729 73.12813 61.68229ZM79.05 61.68229Q79.05 60.15104 79.3625 59.229164Q79.675 58.291664 80.28438 57.791664Q80.90938 57.291664 81.84688 57.291664Q82.53438 57.291664 83.05 57.572914Q83.58125 57.854164 83.925 58.385414Q84.26875 58.90104 84.45625 59.65104Q84.64375 60.40104 84.64375 61.68229Q84.64375 63.197914 84.33125 64.11979Q84.03438 65.041664 83.40938 65.55729Q82.8 66.05729 81.84688 66.05729Q80.6125 66.05729 79.89375 65.166664Q79.05 64.104164 79.05 61.68229ZM80.12813 61.68229Q80.12813 63.791664 80.62813 64.49479Q81.12813 65.197914 81.84688 65.197914Q82.58125 65.197914 83.06563 64.49479Q83.56563 63.791664 83.56563 61.68229Q83.56563 59.55729 83.06563 58.86979Q82.58125 58.166664 81.83125 58.166664Q81.1125 58.166664 80.675 58.77604Q80.12813 59.55729 80.12813 61.68229Z" fill-rule="nonzero"/><path fill="#000000" d="M74.62577 313.21564Q74.62577 311.6844 74.93827 310.7625Q75.25077 309.825 75.860146 309.325Q76.485146 308.825 77.422646 308.825Q78.110146 308.825 78.62577 309.10626Q79.15702 309.3875 79.50077 309.91876Q79.84452 310.4344 80.03202 311.1844Q80.21952 311.9344 80.21952 313.21564Q80.21952 314.73126 79.90702 315.65314Q79.610146 316.575 78.985146 317.09064Q78.37577 317.59064 77.422646 317.59064Q76.18827 317.59064 75.46952 316.7Q74.62577 315.6375 74.62577 313.21564ZM75.703896 313.21564Q75.703896 315.325 76.203896 316.02814Q76.703896 316.73126 77.422646 316.73126Q78.15702 316.73126 78.641396 316.02814Q79.141396 315.325 79.141396 313.21564Q79.141396 311.09064 78.641396 310.40314Q78.15702 309.7 77.40702 309.7Q76.68827 309.7 76.25077 310.3094Q75.703896 311.09064 75.703896 313.21564ZM82.18827 317.45L82.18827 316.2469L83.391396 316.2469L83.391396 317.45Q83.391396 318.10626 83.15702 318.5125Q82.922646 318.9344 82.422646 319.15314L82.12577 318.7Q82.453896 318.5594 82.610146 318.2625Q82.766396 317.98126 82.797646 317.45L82.18827 317.45ZM84.62577 313.21564Q84.62577 311.6844 84.93827 310.7625Q85.25077 309.825 85.860146 309.325Q86.485146 308.825 87.422646 308.825Q88.110146 308.825 88.62577 309.10626Q89.15702 309.3875 89.50077 309.91876Q89.84452 310.4344 90.03202 311.1844Q90.21952 311.9344 90.21952 313.21564Q90.21952 314.73126 89.90702 315.65314Q89.610146 316.575 88.985146 317.09064Q88.37577 317.59064 87.422646 317.59064Q86.18827 317.59064 85.46952 316.7Q84.62577 315.6375 84.62577 313.21564ZM85.703896 313.21564Q85.703896 315.325 86.203896 316.02814Q86.703896 316.73126 87.422646 316.73126Q88.15702 316.73126 88.641396 316.02814Q89.141396 315.325 89.141396 313.21564Q89.141396 311.09064 88.641396 310.40314Q88.15702 309.7 87.40702 309.7Q86.68827 309.7 86.25077 310.3094Q85.703896 311.09064 85.703896 313.21564ZM91.62577 313.21564Q91.62577 311.6844 91.93827 310.7625Q92.25077 309.825 92.860146 309.325Q93.485146 308.825 94.422646 308.825Q95.110146 308.825 95.62577 309.10626Q96.15702 309.3875 96.50077 309.91876Q96.84452 310.4344 97.03202 311.1844Q97.21952 311.9344 97.21952 313.21564Q97.21952 314.73126 96.90702 315.65314Q96.610146 316.575 95.985146 317.09064Q95.37577 317.59064 94.422646 317.59064Q93.18827 317.59064 92.46952 316.7Q91.62577 315.6375 91.62577 313.21564ZM92.703896 313.21564Q92.703896 315.325 93.203896 316.02814Q93.703896 316.73126 94.422646 316.73126Q95.15702 316.73126 95.641396 316.02814Q96.141396 315.325 96.141396 313.21564Q96.141396 311.09064 95.641396 310.40314Q95.15702 309.7 94.40702 309.7Q93.68827 309.7 93.25077 310.3094Q92.703896 311.09064 92.703896 313.21564ZM98.62577 313.21564Q98.62577 311.6844 98.93827 310.7625Q99.25077 309.825 99.860146 309.325Q100.485146 308.825 101.422646 308.825Q102.110146 308.825 102.62577 309.10626Q103.15702 309.3875 103.50077 309.91876Q103.84452 310.4344 104.03202 311.1844Q104.21952 311.9344 104.21952 313.21564Q104.21952 314.73126 103.90702 315.65314Q103.610146 316.575 102.985146 317.09064Q102.37577 317.59064 101.422646 317.59064Q100.18827 317.59064 99.46952 316.7Q98.62577 315.6375 98.62577 313.21564ZM99.703896 313.21564Q99.703896 315.325 100.203896 316.02814Q100.703896 316.73126 101.422646 316.73126Q102.15702 316.73126 102.641396 316.02814Q103.141396 315.325 103.141396 313.21564Q103.141396 311.09064 102.641396 310.40314Q102.15702 309.7 101.40702 309.7Q100.68827 309.7 100.25077 310.3094Q99.703896 311.09064 99.703896 313.21564ZM105.62577 313.21564Q105.62577 311.6844 105.93827 310.7625Q106.25077 309.825 106.860146 309.325Q107.485146 308.825 108.422646 308.825Q109.110146 308.825 109.62577 309.10626Q110.15702 309.3875 110.50077 309.91876Q110.84452 310.4344 111.03202 311.1844Q111.21952 311.9344 111.21952 313.21564Q111.21952 314.73126 110.90702 315.65314Q110.610146 316.575 109.985146 317.09064Q109.37577 317.59064 108.422646 317.59064Q107.18827 317.59064 106.46952 316.7Q105.62577 315.6375 105.62577 313.21564ZM106.703896 313.21564Q106.703896 315.325 107.203896 316.02814Q107.703896 316.73126 108.422646 316.73126Q109.15702 316.73126 109.641396 316.02814Q110.141396 315.325 110.141396 313.21564Q110.141396 311.09064 109.641396 310.40314Q109.15702 309.7 108.40702 309.7Q107.68827 309.7 107.25077 310.3094Q106.703896 311.09064 106.703896 313.21564Z" fill-rule="nonzero"/><path fill="#000000" d="M205.75163 313.21564Q205.75163 311.6844 206.06413 310.7625Q206.37663 309.825 206.98601 309.325Q207.61101 308.825 208.54851 308.825Q209.23601 308.825 209.75163 309.10626Q210.28288 309.3875 210.62663 309.91876Q210.97038 310.4344 211.15788 311.1844Q211.34538 311.9344 211.34538 313.21564Q211.34538 314.73126 211.03288 315.65314Q210.73601 316.575 210.11101 317.09064Q209.50163 317.59064 208.54851 317.59064Q207.31413 317.59064 206.59538 316.7Q205.75163 315.6375 205.75163 313.21564ZM206.82976 313.21564Q206.82976 315.325 207.32976 316.02814Q207.82976 316.73126 208.54851 316.73126Q209.28288 316.73126 209.76726 316.02814Q210.26726 315.325 210.26726 313.21564Q210.26726 311.09064 209.76726 310.40314Q209.28288 309.7 208.53288 309.7Q207.81413 309.7 207.37663 310.3094Q206.82976 311.09064 206.82976 313.21564ZM213.31413 317.45L213.31413 316.2469L214.51726 316.2469L214.51726 317.45Q214.51726 318.10626 214.28288 318.5125Q214.04851 318.9344 213.54851 319.15314L213.25163 318.7Q213.57976 318.5594 213.73601 318.2625Q213.89226 317.98126 213.92351 317.45L213.31413 317.45ZM215.75163 313.21564Q215.75163 311.6844 216.06413 310.7625Q216.37663 309.825 216.98601 309.325Q217.61101 308.825 218.54851 308.825Q219.23601 308.825 219.75163 309.10626Q220.28288 309.3875 220.62663 309.91876Q220.97038 310.4344 221.15788 311.1844Q221.34538 311.9344 221.34538 313.21564Q221.34538 314.73126 221.03288 315.65314Q220.73601 316.575 220.11101 317.09064Q219.50163 317.59064 218.54851 317.59064Q217.31413 317.59064 216.59538 316.7Q215.75163 315.6375 215.75163 313.21564ZM216.82976 313.21564Q216.82976 315.325 217.32976 316.02814Q217.82976 316.73126 218.54851 316.73126Q219.28288 316.73126 219.76726 316.02814Q220.26726 315.325 220.26726 313.21564Q220.26726 311.09064 219.76726 310.40314Q219.28288 309.7 218.53288 309.7Q217.81413 309.7 217.37663 310.3094Q216.82976 311.09064 216.82976 313.21564ZM222.75163 313.21564Q222.75163 311.6844 223.06413 310.7625Q223.37663 309.825 223.98601 309.325Q224.61101 308.825 225.54851 308.825Q226.23601 308.825 226.75163 309.10626Q227.28288 309.3875 227.62663 309.91876Q227.97038 310.4344 228.15788 311.1844Q228.34538 311.9344 228.34538 313.21564Q228.34538 314.73126 228.03288 315.65314Q227.73601 316.575 227.11101 317.09064Q226.50163 317.59064 225.54851 317.59064Q224.31413 317.59064 223.59538 316.7Q222.75163 315.6375 222.75163 313.21564ZM223.82976 313.21564Q223.82976 315.325 224.32976 316.02814Q224.82976 316.73126 225.54851 316.73126Q226.28288 316.73126 226.76726 316.02814Q227.26726 315.325 227.26726 313.21564Q227.26726 311.09064 226.76726 310.40314Q226.28288 309.7 225.53288 309.7Q224.81413 309.7 224.37663 310.3094Q223.82976 311.09064 223.82976 313.21564ZM235.29851 316.4344L235.29851 317.45L229.61101 317.45Q229.61101 317.075 229.73601 316.71564Q229.95476 316.1375 230.42351 315.575Q230.90788 315.0125 231.81413 314.27814Q233.22038 313.1219 233.70476 312.45Q234.20476 311.77814 234.20476 311.1844Q234.20476 310.5594 233.75163 310.1375Q233.29851 309.7 232.57976 309.7Q231.81413 309.7 231.36101 310.15314Q230.90788 310.60626 230.89226 311.41876L229.81413 311.3094Q229.92351 310.09064 230.64226 309.46564Q231.37663 308.825 232.61101 308.825Q233.84538 308.825 234.56413 309.5125Q235.28288 310.2 235.28288 311.21564Q235.28288 311.73126 235.06413 312.23126Q234.86101 312.71564 234.36101 313.27814Q233.87663 313.825 232.75163 314.77814Q231.79851 315.575 231.51726 315.8719Q231.25163 316.15314 231.07976 316.4344L235.29851 316.4344ZM236.75163 315.2L237.86101 315.10626Q237.98601 315.91876 238.42351 316.325Q238.87663 316.73126 239.51726 316.73126Q240.26726 316.73126 240.79851 316.15314Q241.32976 315.575 241.32976 314.6375Q241.32976 313.73126 240.81413 313.21564Q240.31413 312.6844 239.48601 312.6844Q238.98601 312.6844 238.56413 312.91876Q238.15788 313.15314 237.92351 313.5125L236.93913 313.3875L237.76726 308.98126L242.04851 308.98126L242.04851 309.98126L238.61101 309.98126L238.15788 312.29376Q238.92351 311.7469 239.76726 311.7469Q240.89226 311.7469 241.65788 312.52814Q242.43913 313.3094 242.43913 314.54376Q242.43913 315.7 241.76726 316.5594Q240.93913 317.59064 239.51726 317.59064Q238.34538 317.59064 237.59538 316.9344Q236.86101 316.27814 236.75163 315.2Z" fill-rule="nonzero"/><path fill="#000000" d="M336.87747 313.21564Q336.87747 311.6844 337.18997 310.7625Q337.50247 309.825 338.11185 309.325Q338.73685 308.825 339.67435 308.825Q340.36185 308.825 340.87747 309.10626Q341.40872 309.3875 341.75247 309.91876Q342.09622 310.4344 342.28372 311.1844Q342.47122 311.9344 342.47122 313.21564Q342.47122 314.73126 342.15872 315.65314Q341.86185 316.575 341.23685 317.09064Q340.62747 317.59064 339.67435 317.59064Q338.43997 317.59064 337.72122 316.7Q336.87747 315.6375 336.87747 313.21564ZM337.9556 313.21564Q337.9556 315.325 338.4556 316.02814Q338.9556 316.73126 339.67435 316.73126Q340.40872 316.73126 340.8931 316.02814Q341.3931 315.325 341.3931 313.21564Q341.3931 311.09064 340.8931 310.40314Q340.40872 309.7 339.65872 309.7Q338.93997 309.7 338.50247 310.3094Q337.9556 311.09064 337.9556 313.21564ZM344.43997 317.45L344.43997 316.2469L345.6431 316.2469L345.6431 317.45Q345.6431 318.10626 345.40872 318.5125Q345.17435 318.9344 344.67435 319.15314L344.37747 318.7Q344.7056 318.5594 344.86185 318.2625Q345.0181 317.98126 345.04935 317.45L344.43997 317.45ZM346.87747 313.21564Q346.87747 311.6844 347.18997 310.7625Q347.50247 309.825 348.11185 309.325Q348.73685 308.825 349.67435 308.825Q350.36185 308.825 350.87747 309.10626Q351.40872 309.3875 351.75247 309.91876Q352.09622 310.4344 352.28372 311.1844Q352.47122 311.9344 352.47122 313.21564Q352.47122 314.73126 352.15872 315.65314Q351.86185 316.575 351.23685 317.09064Q350.62747 317.59064 349.67435 317.59064Q348.43997 317.59064 347.72122 316.7Q346.87747 315.6375 346.87747 313.21564ZM347.9556 313.21564Q347.9556 315.325 348.4556 316.02814Q348.9556 316.73126 349.67435 316.73126Q350.40872 316.73126 350.8931 316.02814Q351.3931 315.325 351.3931 313.21564Q351.3931 311.09064 350.8931 310.40314Q350.40872 309.7 349.65872 309.7Q348.93997 309.7 348.50247 310.3094Q347.9556 311.09064 347.9556 313.21564ZM353.87747 313.21564Q353.87747 311.6844 354.18997 310.7625Q354.50247 309.825 355.11185 309.325Q355.73685 308.825 356.67435 308.825Q357.36185 308.825 357.87747 309.10626Q358.40872 309.3875 358.75247 309.91876Q359.09622 310.4344 359.28372 311.1844Q359.47122 311.9344 359.47122 313.21564Q359.47122 314.73126 359.15872 315.65314Q358.86185 316.575 358.23685 317.09064Q357.62747 317.59064 356.67435 317.59064Q355.43997 317.59064 354.72122 316.7Q353.87747 315.6375 353.87747 313.21564ZM354.9556 313.21564Q354.9556 315.325 355.4556 316.02814Q355.9556 316.73126 356.67435 316.73126Q357.40872 316.73126 357.8931 316.02814Q358.3931 315.325 358.3931 313.21564Q358.3931 311.09064 357.8931 310.40314Q357.40872 309.7 356.65872 309.7Q355.93997 309.7 355.50247 310.3094Q354.9556 311.09064 354.9556 313.21564ZM360.87747 315.2L361.98685 315.10626Q362.11185 315.91876 362.54935 316.325Q363.00247 316.73126 363.6431 316.73126Q364.3931 316.73126 364.92435 316.15314Q365.4556 315.575 365.4556 314.6375Q365.4556 313.73126 364.93997 313.21564Q364.43997 312.6844 363.61185 312.6844Q363.11185 312.6844 362.68997 312.91876Q362.28372 313.15314 362.04935 313.5125L361.06497 313.3875L361.8931 308.98126L366.17435 308.98126L366.17435 309.98126L362.73685 309.98126L362.28372 312.29376Q363.04935 311.7469 363.8931 311.7469Q365.0181 311.7469 365.78372 312.52814Q366.56497 313.3094 366.56497 314.54376Q366.56497 315.7 365.8931 316.5594Q365.06497 317.59064 363.6431 317.59064Q362.47122 317.59064 361.72122 316.9344Q360.98685 316.27814 360.87747 315.2ZM367.87747 313.21564Q367.87747 311.6844 368.18997 310.7625Q368.50247 309.825 369.11185 309.325Q369.73685 308.825 370.67435 308.825Q371.36185 308.825 371.87747 309.10626Q372.40872 309.3875 372.75247 309.91876Q373.09622 310.4344 373.28372 311.1844Q373.47122 311.9344 373.47122 313.21564Q373.47122 314.73126 373.15872 315.65314Q372.86185 316.575 372.23685 317.09064Q371.62747 317.59064 370.67435 317.59064Q369.43997 317.59064 368.72122 316.7Q367.87747 315.6375 367.87747 313.21564ZM368.9556 313.21564Q368.9556 315.325 369.4556 316.02814Q369.9556 316.73126 370.67435 316.73126Q371.40872 316.73126 371.8931 316.02814Q372.3931 315.325 372.3931 313.21564Q372.3931 311.09064 371.8931 310.40314Q371.40872 309.7 370.65872 309.7Q369.93997 309.7 369.50247 310.3094Q368.9556 311.09064 368.9556 313.21564Z" fill-rule="nonzero"/><path fill="#000000" d="M468.00333 313.21564Q468.00333 311.6844 468.31583 310.7625Q468.62833 309.825 469.2377 309.325Q469.8627 308.825 470.8002 308.825Q471.4877 308.825 472.00333 309.10626Q472.53458 309.3875 472.87833 309.91876Q473.22208 310.4344 473.40958 311.1844Q473.59708 311.9344 473.59708 313.21564Q473.59708 314.73126 473.28458 315.65314Q472.9877 316.575 472.3627 317.09064Q471.75333 317.59064 470.8002 317.59064Q469.56583 317.59064 468.84708 316.7Q468.00333 315.6375 468.00333 313.21564ZM469.08145 313.21564Q469.08145 315.325 469.58145 316.02814Q470.08145 316.73126 470.8002 316.73126Q471.53458 316.73126 472.01895 316.02814Q472.51895 315.325 472.51895 313.21564Q472.51895 311.09064 472.01895 310.40314Q471.53458 309.7 470.78458 309.7Q470.06583 309.7 469.62833 310.3094Q469.08145 311.09064 469.08145 313.21564ZM475.56583 317.45L475.56583 316.2469L476.76895 316.2469L476.76895 317.45Q476.76895 318.10626 476.53458 318.5125Q476.3002 318.9344 475.8002 319.15314L475.50333 318.7Q475.83145 318.5594 475.9877 318.2625Q476.14395 317.98126 476.1752 317.45L475.56583 317.45ZM478.00333 313.21564Q478.00333 311.6844 478.31583 310.7625Q478.62833 309.825 479.2377 309.325Q479.8627 308.825 480.8002 308.825Q481.4877 308.825 482.00333 309.10626Q482.53458 309.3875 482.87833 309.91876Q483.22208 310.4344 483.40958 311.1844Q483.59708 311.9344 483.59708 313.21564Q483.59708 314.73126 483.28458 315.65314Q482.9877 316.575 482.3627 317.09064Q481.75333 317.59064 480.8002 317.59064Q479.56583 317.59064 478.84708 316.7Q478.00333 315.6375 478.00333 313.21564ZM479.08145 313.21564Q479.08145 315.325 479.58145 316.02814Q480.08145 316.73126 480.8002 316.73126Q481.53458 316.73126 482.01895 316.02814Q482.51895 315.325 482.51895 313.21564Q482.51895 311.09064 482.01895 310.40314Q481.53458 309.7 480.78458 309.7Q480.06583 309.7 479.62833 310.3094Q479.08145 311.09064 479.08145 313.21564ZM485.00333 313.21564Q485.00333 311.6844 485.31583 310.7625Q485.62833 309.825 486.2377 309.325Q486.8627 308.825 487.8002 308.825Q488.4877 308.825 489.00333 309.10626Q489.53458 309.3875 489.87833 309.91876Q490.22208 310.4344 490.40958 311.1844Q490.59708 311.9344 490.59708 313.21564Q490.59708 314.73126 490.28458 315.65314Q489.9877 316.575 489.3627 317.09064Q488.75333 317.59064 487.8002 317.59064Q486.56583 317.59064 485.84708 316.7Q485.00333 315.6375 485.00333 313.21564ZM486.08145 313.21564Q486.08145 315.325 486.58145 316.02814Q487.08145 316.73126 487.8002 316.73126Q488.53458 316.73126 489.01895 316.02814Q489.51895 315.325 489.51895 313.21564Q489.51895 311.09064 489.01895 310.40314Q488.53458 309.7 487.78458 309.7Q487.06583 309.7 486.62833 310.3094Q486.08145 311.09064 486.08145 313.21564ZM492.06583 309.98126L492.06583 308.96564L497.62833 308.96564L497.62833 309.79376Q496.81583 310.66876 496.00333 312.1219Q495.20645 313.5594 494.76895 315.09064Q494.44083 316.16876 494.3627 317.45L493.26895 317.45Q493.28458 316.4344 493.65958 314.9969Q494.0502 313.5594 494.75333 312.23126Q495.47208 310.90314 496.28458 309.98126L492.06583 309.98126ZM499.00333 315.2L500.1127 315.10626Q500.2377 315.91876 500.6752 316.325Q501.12833 316.73126 501.76895 316.73126Q502.51895 316.73126 503.0502 316.15314Q503.58145 315.575 503.58145 314.6375Q503.58145 313.73126 503.06583 313.21564Q502.56583 312.6844 501.7377 312.6844Q501.2377 312.6844 500.81583 312.91876Q500.40958 313.15314 500.1752 313.5125L499.19083 313.3875L500.01895 308.98126L504.3002 308.98126L504.3002 309.98126L500.8627 309.98126L500.40958 312.29376Q501.1752 311.7469 502.01895 311.7469Q503.14395 311.7469 503.90958 312.52814Q504.69083 313.3094 504.69083 314.54376Q504.69083 315.7 504.01895 316.5594Q503.19083 317.59064 501.76895 317.59064Q500.59708 317.59064 499.84708 316.9344Q499.1127 316.27814 499.00333 315.2Z" fill-rule="nonzero"/><path fill="#000000" d="M599.1292 313.21564Q599.1292 311.6844 599.4417 310.7625Q599.7542 309.825 600.3636 309.325Q600.9886 308.825 601.9261 308.825Q602.6136 308.825 603.1292 309.10626Q603.66046 309.3875 604.0042 309.91876Q604.34796 310.4344 604.53546 311.1844Q604.72296 311.9344 604.72296 313.21564Q604.72296 314.73126 604.41046 315.65314Q604.1136 316.575 603.4886 317.09064Q602.8792 317.59064 601.9261 317.59064Q600.6917 317.59064 599.97296 316.7Q599.1292 315.6375 599.1292 313.21564ZM600.20734 313.21564Q600.20734 315.325 600.70734 316.02814Q601.20734 316.73126 601.9261 316.73126Q602.66046 316.73126 603.14484 316.02814Q603.64484 315.325 603.64484 313.21564Q603.64484 311.09064 603.14484 310.40314Q602.66046 309.7 601.91046 309.7Q601.1917 309.7 600.7542 310.3094Q600.20734 311.09064 600.20734 313.21564ZM606.6917 317.45L606.6917 316.2469L607.89484 316.2469L607.89484 317.45Q607.89484 318.10626 607.66046 318.5125Q607.4261 318.9344 606.9261 319.15314L606.6292 318.7Q606.95734 318.5594 607.1136 318.2625Q607.26984 317.98126 607.3011 317.45L606.6917 317.45ZM609.1292 313.21564Q609.1292 311.6844 609.4417 310.7625Q609.7542 309.825 610.3636 309.325Q610.9886 308.825 611.9261 308.825Q612.6136 308.825 613.1292 309.10626Q613.66046 309.3875 614.0042 309.91876Q614.34796 310.4344 614.53546 311.1844Q614.72296 311.9344 614.72296 313.21564Q614.72296 314.73126 614.41046 315.65314Q614.1136 316.575 613.4886 317.09064Q612.8792 317.59064 611.9261 317.59064Q610.6917 317.59064 609.97296 316.7Q609.1292 315.6375 609.1292 313.21564ZM610.20734 313.21564Q610.20734 315.325 610.70734 316.02814Q611.20734 316.73126 611.9261 316.73126Q612.66046 316.73126 613.14484 316.02814Q613.64484 315.325 613.64484 313.21564Q613.64484 311.09064 613.14484 310.40314Q612.66046 309.7 611.91046 309.7Q611.1917 309.7 610.7542 310.3094Q610.20734 311.09064 610.20734 313.21564ZM620.09796 317.45L619.0511 317.45L619.0511 310.73126Q618.66046 311.09064 618.03546 311.46564Q617.4261 311.825 616.9417 311.9969L616.9417 310.98126Q617.8167 310.5594 618.47296 309.98126Q619.14484 309.3875 619.4261 308.825L620.09796 308.825L620.09796 317.45ZM623.1292 313.21564Q623.1292 311.6844 623.4417 310.7625Q623.7542 309.825 624.3636 309.325Q624.9886 308.825 625.9261 308.825Q626.6136 308.825 627.1292 309.10626Q627.66046 309.3875 628.0042 309.91876Q628.34796 310.4344 628.53546 311.1844Q628.72296 311.9344 628.72296 313.21564Q628.72296 314.73126 628.41046 315.65314Q628.1136 316.575 627.4886 317.09064Q626.8792 317.59064 625.9261 317.59064Q624.6917 317.59064 623.97296 316.7Q623.1292 315.6375 623.1292 313.21564ZM624.20734 313.21564Q624.20734 315.325 624.70734 316.02814Q625.20734 316.73126 625.9261 316.73126Q626.66046 316.73126 627.14484 316.02814Q627.64484 315.325 627.64484 313.21564Q627.64484 311.09064 627.14484 310.40314Q626.66046 309.7 625.91046 309.7Q625.1917 309.7 624.7542 310.3094Q624.20734 311.09064 624.20734 313.21564ZM630.1292 313.21564Q630.1292 311.6844 630.4417 310.7625Q630.7542 309.825 631.3636 309.325Q631.9886 308.825 632.9261 308.825Q633.6136 308.825 634.1292 309.10626Q634.66046 309.3875 635.0042 309.91876Q635.34796 310.4344 635.53546 311.1844Q635.72296 311.9344 635.72296 313.21564Q635.72296 314.73126 635.41046 315.65314Q635.1136 316.575 634.4886 317.09064Q633.8792 317.59064 632.9261 317.59064Q631.6917 317.59064 630.97296 316.7Q630.1292 315.6375 630.1292 313.21564ZM631.20734 313.21564Q631.20734 315.325 631.70734 316.02814Q632.20734 316.73126 632.9261 316.73126Q633.66046 316.73126 634.14484 316.02814Q634.64484 315.325 634.64484 313.21564Q634.64484 311.09064 634.14484 310.40314Q633.66046 309.7 632.91046 309.7Q632.1917 309.7 631.7542 310.3094Q631.20734 311.09064 631.20734 313.21564Z" fill-rule="nonzero"/><path fill="#757575" d="M30.315624 32.534374L32.20625 33.003124Q31.6125 35.346874 30.065624 36.58125Q28.51875 37.8 26.26875 37.8Q23.95625 37.8 22.503124 36.8625Q21.065624 35.909374 20.3 34.128124Q19.55 32.33125 19.55 30.284374Q19.55 28.05 20.39375 26.39375Q21.253124 24.721874 22.83125 23.8625Q24.409374 22.9875 26.3 22.9875Q28.45625 22.9875 29.909374 24.08125Q31.378124 25.175 31.95625 27.159374L30.096874 27.596874Q29.596874 26.034374 28.64375 25.33125Q27.70625 24.6125 26.26875 24.6125Q24.6125 24.6125 23.503124 25.409374Q22.39375 26.190624 21.940624 27.534374Q21.503124 28.8625 21.503124 30.26875Q21.503124 32.096874 22.034374 33.471874Q22.565624 34.83125 23.690624 35.503124Q24.815624 36.175 26.1125 36.175Q27.70625 36.175 28.815624 35.253124Q29.925 34.33125 30.315624 32.534374ZM33.8625 41.51875L33.8625 27.175L35.471874 27.175L35.471874 28.51875Q36.034374 27.7375 36.7375 27.346874Q37.45625 26.940624 38.471874 26.940624Q39.8 26.940624 40.815624 27.628124Q41.83125 28.315624 42.346874 29.565624Q42.878124 30.8 42.878124 32.284374Q42.878124 33.878124 42.3 35.159374Q41.7375 36.425 40.64375 37.1125Q39.55 37.784374 38.346874 37.784374Q37.471874 37.784374 36.76875 37.409374Q36.08125 37.034374 35.628124 36.471874L35.628124 41.51875L33.8625 41.51875ZM35.45625 32.425Q35.45625 34.425 36.26875 35.378124Q37.08125 36.33125 38.2375 36.33125Q39.409374 36.33125 40.2375 35.346874Q41.08125 34.3625 41.08125 32.26875Q41.08125 30.3 40.253124 29.315624Q39.440624 28.315624 38.315624 28.315624Q37.190624 28.315624 36.315624 29.378124Q35.45625 30.425 35.45625 32.425ZM51.971874 34.20625L53.784374 34.440624Q53.3625 36.01875 52.190624 36.909374Q51.034374 37.784374 49.221874 37.784374Q46.95625 37.784374 45.6125 36.39375Q44.284374 34.9875 44.284374 32.45625Q44.284374 29.83125 45.628124 28.39375Q46.971874 26.940624 49.128124 26.940624Q51.20625 26.940624 52.51875 28.3625Q53.846874 29.76875 53.846874 32.346874Q53.846874 32.503124 53.83125 32.815624L46.096874 32.815624Q46.190624 34.51875 47.065624 35.425Q47.940624 36.33125 49.2375 36.33125Q50.20625 36.33125 50.878124 35.83125Q51.565624 35.315624 51.971874 34.20625ZM46.190624 31.3625L51.9875 31.3625Q51.878124 30.065624 51.33125 29.409374Q50.4875 28.39375 49.14375 28.39375Q47.940624 28.39375 47.1125 29.20625Q46.284374 30.003124 46.190624 31.3625ZM57.253124 27.175L64.4875 27.175L64.4875 36.096874L65.6125 36.096874L65.6125 40.4875L64.15938 40.4875L64.15938 37.55L56.003124 37.55L56.003124 40.4875L54.55 40.4875L54.55 36.096874L55.471874 36.096874Q57.33125 33.58125 57.253124 27.175ZM58.721874 28.628124Q58.51875 33.675 57.159374 36.096874L62.7375 36.096874L62.7375 28.628124L58.721874 28.628124ZM67.87813 27.175L69.64375 27.175L69.64375 31.4875L74.50313 31.4875L74.50313 27.175L76.26875 27.175L76.26875 37.55L74.50313 37.55L74.50313 32.95625L69.64375 32.95625L69.64375 37.55L67.87813 37.55L67.87813 27.175ZM84.97188 34.20625L86.78438 34.440624Q86.3625 36.01875 85.19063 36.909374Q84.03438 37.784374 82.22188 37.784374Q79.95625 37.784374 78.6125 36.39375Q77.28438 34.9875 77.28438 32.45625Q77.28438 29.83125 78.62813 28.39375Q79.97188 26.940624 82.12813 26.940624Q84.20625 26.940624 85.51875 28.3625Q86.84688 29.76875 86.84688 32.346874Q86.84688 32.503124 86.83125 32.815624L79.09688 32.815624Q79.19063 34.51875 80.06563 35.425Q80.94063 36.33125 82.2375 36.33125Q83.20625 36.33125 83.87813 35.83125Q84.56563 35.315624 84.97188 34.20625ZM79.19063 31.3625L84.9875 31.3625Q84.87813 30.065624 84.33125 29.409374Q83.4875 28.39375 82.14375 28.39375Q80.94063 28.39375 80.1125 29.20625Q79.28438 30.003124 79.19063 31.3625ZM95.97188 34.20625L97.78438 34.440624Q97.3625 36.01875 96.19063 36.909374Q95.03438 37.784374 93.22188 37.784374Q90.95625 37.784374 89.6125 36.39375Q88.28438 34.9875 88.28438 32.45625Q88.28438 29.83125 89.62813 28.39375Q90.97188 26.940624 93.12813 26.940624Q95.20625 26.940624 96.51875 28.3625Q97.84688 29.76875 97.84688 32.346874Q97.84688 32.503124 97.83125 32.815624L90.09688 32.815624Q90.19063 34.51875 91.06563 35.425Q91.94063 36.33125 93.2375 36.33125Q94.20625 36.33125 94.87813 35.83125Q95.56563 35.315624 95.97188 34.20625ZM90.19063 31.3625L95.9875 31.3625Q95.87813 30.065624 95.33125 29.409374Q94.4875 28.39375 93.14375 28.39375Q91.94063 28.39375 91.1125 29.20625Q90.28438 30.003124 90.19063 31.3625ZM105.87813 27.175L109.925 27.175Q111.425 27.175 112.14375 27.425Q112.87813 27.675 113.39375 28.346874Q113.925 29.003124 113.925 29.925Q113.925 30.675 113.6125 31.2375Q113.31563 31.784374 112.69063 32.14375Q113.425 32.39375 113.90938 33.065624Q114.39375 33.7375 114.39375 34.64375Q114.3 36.128124 113.33125 36.846874Q112.37813 37.55 110.55 37.55L105.87813 37.55L105.87813 27.175ZM107.64375 31.55L109.51875 31.55Q110.62813 31.55 111.05 31.440624Q111.47188 31.315624 111.8 30.95625Q112.14375 30.596874 112.14375 30.096874Q112.14375 29.284374 111.55 28.95625Q110.97188 28.628124 109.56563 28.628124L107.64375 28.628124L107.64375 31.55ZM107.64375 36.096874L109.95625 36.096874Q111.44063 36.096874 112.00313 35.753124Q112.56563 35.409374 112.58125 34.565624Q112.58125 34.065624 112.25313 33.64375Q111.94063 33.20625 111.425 33.096874Q110.90938 32.9875 109.76875 32.9875L107.64375 32.9875L107.64375 36.096874ZM116.8625 41.51875L116.8625 27.175L118.47188 27.175L118.47188 28.51875Q119.03438 27.7375 119.7375 27.346874Q120.45625 26.940624 121.47188 26.940624Q122.8 26.940624 123.81563 27.628124Q124.83125 28.315624 125.34688 29.565624Q125.87813 30.8 125.87813 32.284374Q125.87813 33.878124 125.3 35.159374Q124.7375 36.425 123.64375 37.1125Q122.55 37.784374 121.34688 37.784374Q120.47188 37.784374 119.76875 37.409374Q119.08125 37.034374 118.62813 36.471874L118.62813 41.51875L116.8625 41.51875ZM118.45625 32.425Q118.45625 34.425 119.26875 35.378124Q120.08125 36.33125 121.2375 36.33125Q122.40938 36.33125 123.2375 35.346874Q124.08125 34.3625 124.08125 32.26875Q124.08125 30.3 123.25313 29.315624Q122.44063 28.315624 121.31563 28.315624Q120.19063 28.315624 119.31563 29.378124Q118.45625 30.425 118.45625 32.425ZM134.97188 34.20625L136.78438 34.440624Q136.3625 36.01875 135.19063 36.909374Q134.03438 37.784374 132.22188 37.784374Q129.95625 37.784374 128.6125 36.39375Q127.28438 34.9875 127.28438 32.45625Q127.28438 29.83125 128.62813 28.39375Q129.97188 26.940624 132.12813 26.940624Q134.20625 26.940624 135.51875 28.3625Q136.84688 29.76875 136.84688 32.346874Q136.84688 32.503124 136.83125 32.815624L129.09688 32.815624Q129.19063 34.51875 130.06563 35.425Q130.94063 36.33125 132.2375 36.33125Q133.20625 36.33125 133.87813 35.83125Q134.56563 35.315624 134.97188 34.20625ZM129.19063 31.3625L134.9875 31.3625Q134.87813 30.065624 134.33125 29.409374Q133.4875 28.39375 132.14375 28.39375Q130.94063 28.39375 130.1125 29.20625Q129.28438 30.003124 129.19063 31.3625ZM138.925 27.175L141.65938 27.175L144.37813 35.471874L147.40938 27.175L149.94063 27.175L149.94063 37.55L148.175 37.55L148.175 29.20625L145.1125 37.55L143.53438 37.55L140.64375 28.8L140.64375 37.55L138.925 37.55L138.925 27.175ZM160.03438 27.175L160.03438 37.55L158.28438 37.55L158.28438 33.503124L157.26875 33.503124Q156.34688 33.503124 155.89375 33.753124Q155.44063 33.9875 154.56563 35.284374L153.03438 37.55L150.84688 37.55L152.75313 34.753124Q153.6125 33.471874 154.47188 33.315624Q152.97188 33.1125 152.2375 32.2375Q151.51875 31.346874 151.51875 30.20625Q151.51875 28.8625 152.47188 28.01875Q153.425 27.175 155.22188 27.175L160.03438 27.175ZM158.28438 28.628124L155.78438 28.628124Q154.20625 28.628124 153.75313 29.128124Q153.3 29.6125 153.3 30.26875Q153.3 31.190624 153.97188 31.628124Q154.64375 32.065624 156.34688 32.065624L158.28438 32.065624L158.28438 28.628124ZM168.22188 32.3625Q168.22188 29.4875 169.81563 28.096874Q171.15938 26.940624 173.08125 26.940624Q175.22188 26.940624 176.56563 28.346874Q177.925 29.753124 177.925 32.221874Q177.925 34.221874 177.33125 35.378124Q176.7375 36.51875 175.58125 37.159374Q174.44063 37.784374 173.08125 37.784374Q170.89375 37.784374 169.55 36.39375Q168.22188 34.9875 168.22188 32.3625ZM170.01875 32.3625Q170.01875 34.3625 170.87813 35.346874Q171.75313 36.33125 173.08125 36.33125Q174.39375 36.33125 175.25313 35.346874Q176.12813 34.346874 176.12813 32.3Q176.12813 30.378124 175.25313 29.39375Q174.37813 28.39375 173.08125 28.39375Q171.75313 28.39375 170.87813 29.39375Q170.01875 30.378124 170.01875 32.3625ZM178.925 27.175L187.34688 27.175L187.34688 28.628124L184.00313 28.628124L184.00313 37.55L182.26875 37.55L182.26875 28.628124L178.925 28.628124L178.925 27.175ZM188.87813 27.175L190.64375 27.175L190.64375 31.4875L195.50313 31.4875L195.50313 27.175L197.26875 27.175L197.26875 37.55L195.50313 37.55L195.50313 32.95625L190.64375 32.95625L190.64375 37.55L188.87813 37.55L188.87813 27.175ZM198.22188 32.3625Q198.22188 29.4875 199.81563 28.096874Q201.15938 26.940624 203.08125 26.940624Q205.22188 26.940624 206.56563 28.346874Q207.925 29.753124 207.925 32.221874Q207.925 34.221874 207.33125 35.378124Q206.7375 36.51875 205.58125 37.159374Q204.44063 37.784374 203.08125 37.784374Q200.89375 37.784374 199.55 36.39375Q198.22188 34.9875 198.22188 32.3625ZM200.01875 32.3625Q200.01875 34.3625 200.87813 35.346874Q201.75313 36.33125 203.08125 36.33125Q204.39375 36.33125 205.25313 35.346874Q206.12813 34.346874 206.12813 32.3Q206.12813 30.378124 205.25313 29.39375Q204.37813 28.39375 203.08125 28.39375Q201.75313 28.39375 200.87813 29.39375Q200.01875 30.378124 200.01875 32.3625ZM216.64375 33.753124L218.3625 33.971874Q218.08125 35.76875 216.90938 36.784374Q215.75313 37.784374 214.05 37.784374Q211.925 37.784374 210.62813 36.39375Q209.33125 35.003124 209.33125 32.409374Q209.33125 30.721874 209.87813 29.471874Q210.44063 28.20625 211.58125 27.58125Q212.72188 26.940624 214.06563 26.940624Q215.75313 26.940624 216.81563 27.8Q217.89375 28.659374 218.20625 30.221874L216.4875 30.4875Q216.25313 29.440624 215.62813 28.925Q215.00313 28.39375 214.12813 28.39375Q212.8 28.39375 211.97188 29.346874Q211.14375 30.3 211.14375 32.346874Q211.14375 34.440624 211.94063 35.39375Q212.7375 36.33125 214.03438 36.33125Q215.06563 36.33125 215.75313 35.70625Q216.45625 35.065624 216.64375 33.753124ZM219.8625 27.175L221.62813 27.175L221.62813 35.08125L226.50313 27.175L228.39375 27.175L228.39375 37.55L226.64375 37.55L226.64375 29.690624L221.76875 37.55L219.8625 37.55L219.8625 27.175ZM228.925 27.175L237.34688 27.175L237.34688 28.628124L234.00313 28.628124L234.00313 37.55L232.26875 37.55L232.26875 28.628124L228.925 28.628124L228.925 27.175ZM245.97188 34.20625L247.78438 34.440624Q247.3625 36.01875 246.19063 36.909374Q245.03438 37.784374 243.22188 37.784374Q240.95625 37.784374 239.6125 36.39375Q238.28438 34.9875 238.28438 32.45625Q238.28438 29.83125 239.62813 28.39375Q240.97188 26.940624 243.12813 26.940624Q245.20625 26.940624 246.51875 28.3625Q247.84688 29.76875 247.84688 32.346874Q247.84688 32.503124 247.83125 32.815624L240.09688 32.815624Q240.19063 34.51875 241.06563 35.425Q241.94063 36.33125 243.2375 36.33125Q244.20625 36.33125 244.87813 35.83125Q245.56563 35.315624 245.97188 34.20625ZM240.19063 31.3625L245.9875 31.3625Q245.87813 30.065624 245.33125 29.409374Q244.4875 28.39375 243.14375 28.39375Q241.94063 28.39375 241.1125 29.20625Q240.28438 30.003124 240.19063 31.3625ZM250.72188 27.175L258.89374 27.175L258.89374 37.55L257.14374 37.55L257.14374 28.628124L252.4875 28.628124L252.4875 33.8Q252.4875 35.6125 252.3625 36.190624Q252.25313 36.753124 251.72188 37.190624Q251.19063 37.6125 250.20625 37.6125Q249.58125 37.6125 248.78438 37.534374L248.78438 36.08125L249.55 36.08125Q250.09688 36.08125 250.33125 35.971874Q250.56563 35.846874 250.64375 35.6125Q250.72188 35.3625 250.72188 34.01875L250.72188 27.175ZM260.84686 27.175L262.59686 27.175L262.59686 31.2375L264.83124 31.2375Q267.0031 31.2375 268.175 32.08125Q269.3625 32.925 269.3625 34.409374Q269.3625 35.70625 268.3781 36.628124Q267.39374 37.55 265.2375 37.55L260.84686 37.55L260.84686 27.175ZM262.59686 36.096874L264.4406 36.096874Q266.1125 36.096874 266.8156 35.690624Q267.53436 35.284374 267.53436 34.409374Q267.53436 33.7375 267.0031 33.221874Q266.4875 32.690624 264.675 32.690624L262.59686 32.690624L262.59686 36.096874ZM271.8781 27.175L273.64374 27.175L273.64374 31.4875L278.5031 31.4875L278.5031 27.175L280.26874 27.175L280.26874 37.55L278.5031 37.55L278.5031 32.95625L273.64374 32.95625L273.64374 37.55L271.8781 37.55L271.8781 27.175ZM281.22186 32.3625Q281.22186 29.4875 282.8156 28.096874Q284.15936 26.940624 286.08124 26.940624Q288.22186 26.940624 289.5656 28.346874Q290.925 29.753124 290.925 32.221874Q290.925 34.221874 290.33124 35.378124Q289.7375 36.51875 288.58124 37.159374Q287.4406 37.784374 286.08124 37.784374Q283.89374 37.784374 282.55 36.39375Q281.22186 34.9875 281.22186 32.3625ZM283.01874 32.3625Q283.01874 34.3625 283.8781 35.346874Q284.7531 36.33125 286.08124 36.33125Q287.39374 36.33125 288.2531 35.346874Q289.1281 34.346874 289.1281 32.3Q289.1281 30.378124 288.2531 29.39375Q287.3781 28.39375 286.08124 28.39375Q284.7531 28.39375 283.8781 29.39375Q283.01874 30.378124 283.01874 32.3625ZM298.8781 27.175L307.0656 27.175L307.0656 37.55L305.3 37.55L305.3 28.628124L300.64374 28.628124L300.64374 37.55L298.8781 37.55L298.8781 27.175ZM315.64374 36.26875Q314.65936 37.096874 313.7531 37.440624Q312.84686 37.784374 311.8156 37.784374Q310.1125 37.784374 309.1906 36.95625Q308.26874 36.1125 308.26874 34.815624Q308.26874 34.05 308.6125 33.425Q308.97186 32.8 309.53436 32.425Q310.09686 32.034374 310.8 31.83125Q311.3156 31.70625 312.3625 31.565624Q314.4875 31.315624 315.4875 30.971874Q315.5031 30.6125 315.5031 30.503124Q315.5031 29.440624 315.0031 28.9875Q314.33124 28.39375 313.0031 28.39375Q311.7531 28.39375 311.15936 28.83125Q310.58124 29.26875 310.3 30.378124L308.58124 30.14375Q308.8156 29.034374 309.34686 28.3625Q309.8781 27.675 310.89374 27.315624Q311.90936 26.940624 313.2531 26.940624Q314.58124 26.940624 315.40936 27.253124Q316.2375 27.565624 316.6281 28.05Q317.01874 28.51875 317.175 29.2375Q317.26874 29.690624 317.26874 30.8625L317.26874 33.20625Q317.26874 35.659374 317.3781 36.315624Q317.4875 36.95625 317.83124 37.55L315.9875 37.55Q315.72186 37.003124 315.64374 36.26875ZM315.4875 32.346874Q314.53436 32.7375 312.6125 33.003124Q311.53436 33.159374 311.08124 33.3625Q310.64374 33.55 310.39374 33.925Q310.14374 34.3 310.14374 34.76875Q310.14374 35.471874 310.675 35.940624Q311.20624 36.409374 312.2375 36.409374Q313.2531 36.409374 314.03436 35.971874Q314.83124 35.51875 315.20624 34.753124Q315.4875 34.14375 315.4875 32.9875L315.4875 32.346874ZM319.8625 41.51875L319.8625 27.175L321.47186 27.175L321.47186 28.51875Q322.03436 27.7375 322.7375 27.346874Q323.45624 26.940624 324.47186 26.940624Q325.8 26.940624 326.8156 27.628124Q327.83124 28.315624 328.34686 29.565624Q328.8781 30.8 328.8781 32.284374Q328.8781 33.878124 328.3 35.159374Q327.7375 36.425 326.64374 37.1125Q325.55 37.784374 324.34686 37.784374Q323.47186 37.784374 322.76874 37.409374Q322.08124 37.034374 321.6281 36.471874L321.6281 41.51875L319.8625 41.51875ZM321.45624 32.425Q321.45624 34.425 322.26874 35.378124Q323.08124 36.33125 324.2375 36.33125Q325.40936 36.33125 326.2375 35.346874Q327.08124 34.3625 327.08124 32.26875Q327.08124 30.3 326.2531 29.315624Q325.4406 28.315624 324.3156 28.315624Q323.1906 28.315624 322.3156 29.378124Q321.45624 30.425 321.45624 32.425ZM337.64374 36.26875Q336.65936 37.096874 335.7531 37.440624Q334.84686 37.784374 333.8156 37.784374Q332.1125 37.784374 331.1906 36.95625Q330.26874 36.1125 330.26874 34.815624Q330.26874 34.05 330.6125 33.425Q330.97186 32.8 331.53436 32.425Q332.09686 32.034374 332.8 31.83125Q333.3156 31.70625 334.3625 31.565624Q336.4875 31.315624 337.4875 30.971874Q337.5031 30.6125 337.5031 30.503124Q337.5031 29.440624 337.0031 28.9875Q336.33124 28.39375 335.0031 28.39375Q333.7531 28.39375 333.15936 28.83125Q332.58124 29.26875 332.3 30.378124L330.58124 30.14375Q330.8156 29.034374 331.34686 28.3625Q331.8781 27.675 332.89374 27.315624Q333.90936 26.940624 335.2531 26.940624Q336.58124 26.940624 337.40936 27.253124Q338.2375 27.565624 338.6281 28.05Q339.01874 28.51875 339.175 29.2375Q339.26874 29.690624 339.26874 30.8625L339.26874 33.20625Q339.26874 35.659374 339.3781 36.315624Q339.4875 36.95625 339.83124 37.55L337.9875 37.55Q337.72186 37.003124 337.64374 36.26875ZM337.4875 32.346874Q336.53436 32.7375 334.6125 33.003124Q333.53436 33.159374 333.08124 33.3625Q332.64374 33.55 332.39374 33.925Q332.14374 34.3 332.14374 34.76875Q332.14374 35.471874 332.675 35.940624Q333.20624 36.409374 334.2375 36.409374Q335.2531 36.409374 336.03436 35.971874Q336.83124 35.51875 337.20624 34.753124Q337.4875 34.14375 337.4875 32.9875L337.4875 32.346874ZM341.925 27.175L344.65936 27.175L347.3781 35.471874L350.40936 27.175L352.9406 27.175L352.9406 37.55L351.175 37.55L351.175 29.20625L348.1125 37.55L346.53436 37.55L343.64374 28.8L343.64374 37.55L341.925 37.55L341.925 27.175ZM361.97186 34.20625L363.78436 34.440624Q363.3625 36.01875 362.1906 36.909374Q361.03436 37.784374 359.22186 37.784374Q356.95624 37.784374 355.6125 36.39375Q354.28436 34.9875 354.28436 32.45625Q354.28436 29.83125 355.6281 28.39375Q356.97186 26.940624 359.1281 26.940624Q361.20624 26.940624 362.51874 28.3625Q363.84686 29.76875 363.84686 32.346874Q363.84686 32.503124 363.83124 32.815624L356.09686 32.815624Q356.1906 34.51875 357.0656 35.425Q357.9406 36.33125 359.2375 36.33125Q360.20624 36.33125 360.8781 35.83125Q361.5656 35.315624 361.97186 34.20625ZM356.1906 31.3625L361.9875 31.3625Q361.8781 30.065624 361.33124 29.409374Q360.4875 28.39375 359.14374 28.39375Q357.9406 28.39375 357.1125 29.20625Q356.28436 30.003124 356.1906 31.3625ZM364.925 27.175L373.34686 27.175L373.34686 28.628124L370.0031 28.628124L370.0031 37.55L368.26874 37.55L368.26874 28.628124L364.925 28.628124L364.925 27.175ZM374.8625 41.51875L374.8625 27.175L376.47186 27.175L376.47186 28.51875Q377.03436 27.7375 377.7375 27.346874Q378.45624 26.940624 379.47186 26.940624Q380.8 26.940624 381.8156 27.628124Q382.83124 28.315624 383.34686 29.565624Q383.8781 30.8 383.8781 32.284374Q383.8781 33.878124 383.3 35.159374Q382.7375 36.425 381.64374 37.1125Q380.55 37.784374 379.34686 37.784374Q378.47186 37.784374 377.76874 37.409374Q377.08124 37.034374 376.6281 36.471874L376.6281 41.51875L374.8625 41.51875ZM376.45624 32.425Q376.45624 34.425 377.26874 35.378124Q378.08124 36.33125 379.2375 36.33125Q380.40936 36.33125 381.2375 35.346874Q382.08124 34.3625 382.08124 32.26875Q382.08124 30.3 381.2531 29.315624Q380.4406 28.315624 379.3156 28.315624Q378.1906 28.315624 377.3156 29.378124Q376.45624 30.425 376.45624 32.425ZM392.64374 36.26875Q391.65936 37.096874 390.7531 37.440624Q389.84686 37.784374 388.8156 37.784374Q387.1125 37.784374 386.1906 36.95625Q385.26874 36.1125 385.26874 34.815624Q385.26874 34.05 385.6125 33.425Q385.97186 32.8 386.53436 32.425Q387.09686 32.034374 387.8 31.83125Q388.3156 31.70625 389.3625 31.565624Q391.4875 31.315624 392.4875 30.971874Q392.5031 30.6125 392.5031 30.503124Q392.5031 29.440624 392.0031 28.9875Q391.33124 28.39375 390.0031 28.39375Q388.7531 28.39375 388.15936 28.83125Q387.58124 29.26875 387.3 30.378124L385.58124 30.14375Q385.8156 29.034374 386.34686 28.3625Q386.8781 27.675 387.89374 27.315624Q388.90936 26.940624 390.2531 26.940624Q391.58124 26.940624 392.40936 27.253124Q393.2375 27.565624 393.6281 28.05Q394.01874 28.51875 394.175 29.2375Q394.26874 29.690624 394.26874 30.8625L394.26874 33.20625Q394.26874 35.659374 394.3781 36.315624Q394.4875 36.95625 394.83124 37.55L392.9875 37.55Q392.72186 37.003124 392.64374 36.26875ZM392.4875 32.346874Q391.53436 32.7375 389.6125 33.003124Q388.53436 33.159374 388.08124 33.3625Q387.64374 33.55 387.39374 33.925Q387.14374 34.3 387.14374 34.76875Q387.14374 35.471874 387.675 35.940624Q388.20624 36.409374 389.2375 36.409374Q390.2531 36.409374 391.03436 35.971874Q391.83124 35.51875 392.20624 34.753124Q392.4875 34.14375 392.4875 32.9875L392.4875 32.346874ZM402.95624 28.3L402.47186 25.58125L402.47186 23.2375L404.47186 23.2375L404.47186 25.58125L404.03436 28.3L402.95624 28.3ZM406.1906 28.3L405.70624 25.58125L405.70624 23.2375L407.70624 23.2375L407.70624 25.58125L407.2375 28.3L406.1906 28.3ZM411.14374 23.2375L420.09686 23.2375L420.09686 37.55L418.20624 37.55L418.20624 24.925L413.03436 24.925L413.03436 32.3Q413.03436 34.534374 412.8156 35.58125Q412.6125 36.628124 411.9406 37.221874Q411.26874 37.8 410.2375 37.8Q409.6125 37.8 408.72186 37.565624L409.05 35.878124Q409.51874 36.08125 409.84686 36.08125Q410.4875 36.08125 410.8156 35.596874Q411.14374 35.1125 411.14374 33.315624L411.14374 23.2375ZM431.03436 27.175L431.03436 37.55L429.28436 37.55L429.28436 33.503124L428.26874 33.503124Q427.34686 33.503124 426.89374 33.753124Q426.4406 33.9875 425.5656 35.284374L424.03436 37.55L421.84686 37.55L423.7531 34.753124Q424.6125 33.471874 425.47186 33.315624Q423.97186 33.1125 423.2375 32.2375Q422.51874 31.346874 422.51874 30.20625Q422.51874 28.8625 423.47186 28.01875Q424.425 27.175 426.22186 27.175L431.03436 27.175ZM429.28436 28.628124L426.78436 28.628124Q425.20624 28.628124 424.7531 29.128124Q424.3 29.6125 424.3 30.26875Q424.3 31.190624 424.97186 31.628124Q425.64374 32.065624 427.34686 32.065624L429.28436 32.065624L429.28436 28.628124ZM433.925 27.175L436.65936 27.175L439.3781 35.471874L442.40936 27.175L444.9406 27.175L444.9406 37.55L443.175 37.55L443.175 29.20625L440.1125 37.55L438.53436 37.55L435.64374 28.8L435.64374 37.55L433.925 37.55L433.925 27.175ZM454.47186 22.89375L456.01874 22.909374Q455.90936 23.95625 455.55 24.3625Q455.20624 24.76875 454.64374 24.89375Q454.08124 25.003124 452.4406 25.003124Q450.2531 25.003124 449.45624 25.425Q448.675 25.846874 448.33124 26.76875Q447.9875 27.690624 447.9406 29.14375Q448.6125 28.159374 449.4875 27.675Q450.3781 27.175 451.5031 27.175Q453.53436 27.175 454.8781 28.58125Q456.22186 29.9875 456.22186 32.378124Q456.22186 34.190624 455.53436 35.3625Q454.8625 36.51875 453.9406 37.159374Q453.01874 37.784374 451.425 37.784374Q449.58124 37.784374 448.55 36.940624Q447.53436 36.096874 446.9875 34.784374Q446.4406 33.45625 446.4406 30.190624Q446.4406 26.08125 447.83124 24.659374Q449.22186 23.221874 452.1125 23.221874Q453.90936 23.221874 454.14374 23.175Q454.39374 23.1125 454.47186 22.89375ZM454.3781 32.33125Q454.3781 30.70625 453.6125 29.675Q452.84686 28.628124 451.45624 28.628124Q449.9875 28.628124 449.1906 29.721874Q448.40936 30.815624 448.40936 32.64375Q448.40936 34.45625 449.28436 35.409374Q450.15936 36.3625 451.4406 36.3625Q452.7531 36.3625 453.5656 35.253124Q454.3781 34.14375 454.3781 32.33125ZM459.2531 27.175L466.4875 27.175L466.4875 36.096874L467.6125 36.096874L467.6125 40.4875L466.15936 40.4875L466.15936 37.55L458.0031 37.55L458.0031 40.4875L456.55 40.4875L456.55 36.096874L457.47186 36.096874Q459.33124 33.58125 459.2531 27.175ZM460.72186 28.628124Q460.51874 33.675 459.15936 36.096874L464.7375 36.096874L464.7375 28.628124L460.72186 28.628124ZM476.64374 36.26875Q475.65936 37.096874 474.7531 37.440624Q473.84686 37.784374 472.8156 37.784374Q471.1125 37.784374 470.1906 36.95625Q469.26874 36.1125 469.26874 34.815624Q469.26874 34.05 469.6125 33.425Q469.97186 32.8 470.53436 32.425Q471.09686 32.034374 471.8 31.83125Q472.3156 31.70625 473.3625 31.565624Q475.4875 31.315624 476.4875 30.971874Q476.5031 30.6125 476.5031 30.503124Q476.5031 29.440624 476.0031 28.9875Q475.33124 28.39375 474.0031 28.39375Q472.7531 28.39375 472.15936 28.83125Q471.58124 29.26875 471.3 30.378124L469.58124 30.14375Q469.8156 29.034374 470.34686 28.3625Q470.8781 27.675 471.89374 27.315624Q472.90936 26.940624 474.2531 26.940624Q475.58124 26.940624 476.40936 27.253124Q477.2375 27.565624 477.6281 28.05Q478.01874 28.51875 478.175 29.2375Q478.26874 29.690624 478.26874 30.8625L478.26874 33.20625Q478.26874 35.659374 478.3781 36.315624Q478.4875 36.95625 478.83124 37.55L476.9875 37.55Q476.72186 37.003124 476.64374 36.26875ZM476.4875 32.346874Q475.53436 32.7375 473.6125 33.003124Q472.53436 33.159374 472.08124 33.3625Q471.64374 33.55 471.39374 33.925Q471.14374 34.3 471.14374 34.76875Q471.14374 35.471874 471.675 35.940624Q472.20624 36.409374 473.2375 36.409374Q474.2531 36.409374 475.03436 35.971874Q475.83124 35.51875 476.20624 34.753124Q476.4875 34.14375 476.4875 32.9875L476.4875 32.346874ZM480.95624 28.3L480.47186 25.58125L480.47186 23.2375L482.47186 23.2375L482.47186 25.58125L482.03436 28.3L480.95624 28.3ZM484.1906 28.3L483.70624 25.58125L483.70624 23.2375L485.70624 23.2375L485.70624 25.58125L485.2375 28.3L484.1906 28.3Z" fill-rule="nonzero"/></svg>